<?xml version="1.0" encoding="UTF-8" standalone="no"?>
<!-- Created with Inkscape (http://www.inkscape.org/) -->

<svg
   width="300"
   height="300"
   viewBox="0 0 79.375 79.375"
   version="1.1"
   id="svg8"
   inkscape:version="1.1 (ce6663b3b7, 2021-05-25)"
   sodipodi:docname="airspeed_needle.svg"
   inkscape:export-filename="/home/slimchahla/Downloads/airspeed.png"
   inkscape:export-xdpi="96"
   inkscape:export-ydpi="96"
   xmlns:inkscape="http://www.inkscape.org/namespaces/inkscape"
   xmlns:sodipodi="http://sodipodi.sourceforge.net/DTD/sodipodi-0.dtd"
   xmlns="http://www.w3.org/2000/svg"
   xmlns:svg="http://www.w3.org/2000/svg"
   xmlns:rdf="http://www.w3.org/1999/02/22-rdf-syntax-ns#"
   xmlns:cc="http://creativecommons.org/ns#"
   xmlns:dc="http://purl.org/dc/elements/1.1/">
  <defs
     id="defs2">
    <clipPath
       clipPathUnits="userSpaceOnUse"
       id="clipPath1260">
      <rect
         style="opacity:1;vector-effect:none;fill:#000000;fill-opacity:1;fill-rule:evenodd;stroke:#000000;stroke-width:0.10000001;stroke-linecap:butt;stroke-linejoin:miter;stroke-miterlimit:4;stroke-dasharray:none;stroke-dashoffset:0;stroke-opacity:1"
         id="rect1262"
         width="12.415953"
         height="17.566673"
         x="232.11423"
         y="-69.494537"
         transform="rotate(39)" />
    </clipPath>
    <clipPath
       clipPathUnits="userSpaceOnUse"
       id="clipPath1264">
      <rect
         style="opacity:1;vector-effect:none;fill:#000000;fill-opacity:1;fill-rule:evenodd;stroke:#000000;stroke-width:0.10000001;stroke-linecap:butt;stroke-linejoin:miter;stroke-miterlimit:4;stroke-dasharray:none;stroke-dashoffset:0;stroke-opacity:1"
         id="rect1266"
         width="12.415953"
         height="17.566673"
         x="232.11423"
         y="-69.494537"
         transform="rotate(39)" />
    </clipPath>
    <clipPath
       clipPathUnits="userSpaceOnUse"
       id="clipPath1268">
      <rect
         style="opacity:1;vector-effect:none;fill:#000000;fill-opacity:1;fill-rule:evenodd;stroke:#000000;stroke-width:0.10000001;stroke-linecap:butt;stroke-linejoin:miter;stroke-miterlimit:4;stroke-dasharray:none;stroke-dashoffset:0;stroke-opacity:1"
         id="rect1270"
         width="12.415953"
         height="17.566673"
         x="232.11423"
         y="-69.494537"
         transform="rotate(39)" />
    </clipPath>
    <clipPath
       clipPathUnits="userSpaceOnUse"
       id="clipPath1272">
      <rect
         style="opacity:1;vector-effect:none;fill:#000000;fill-opacity:1;fill-rule:evenodd;stroke:#000000;stroke-width:0.10000001;stroke-linecap:butt;stroke-linejoin:miter;stroke-miterlimit:4;stroke-dasharray:none;stroke-dashoffset:0;stroke-opacity:1"
         id="rect1274"
         width="12.415953"
         height="17.566673"
         x="232.11423"
         y="-69.494537"
         transform="rotate(39)" />
    </clipPath>
    <filter
       style="color-interpolation-filters:sRGB"
       inkscape:label="Drop Shadow"
       id="filter2379"
       x="-0.0275358"
       y="-0.029971665"
       width="1.0889196"
       height="1.0898879">
      <feFlood
         flood-opacity="0.498039"
         flood-color="rgb(0,0,0)"
         result="flood"
         id="feFlood2369" />
      <feComposite
         in="flood"
         in2="SourceGraphic"
         operator="in"
         result="composite1"
         id="feComposite2371" />
      <feGaussianBlur
         in="composite1"
         stdDeviation="0.7"
         result="blur"
         id="feGaussianBlur2373" />
      <feOffset
         dx="2"
         dy="2"
         result="offset"
         id="feOffset2375" />
      <feComposite
         in="SourceGraphic"
         in2="offset"
         operator="over"
         result="composite2"
         id="feComposite2377" />
    </filter>
    <filter
       style="color-interpolation-filters:sRGB"
       inkscape:label="Drop Shadow"
       id="filter2559">
      <feFlood
         flood-opacity="0.498039"
         flood-color="rgb(0,0,0)"
         result="flood"
         id="feFlood2549" />
      <feComposite
         in="flood"
         in2="SourceGraphic"
         operator="in"
         result="composite1"
         id="feComposite2551" />
      <feGaussianBlur
         in="composite1"
         stdDeviation="0.7"
         result="blur"
         id="feGaussianBlur2553" />
      <feOffset
         dx="2"
         dy="2"
         result="offset"
         id="feOffset2555" />
      <feComposite
         in="SourceGraphic"
         in2="offset"
         operator="over"
         result="composite2"
         id="feComposite2557" />
    </filter>
    <filter
       style="color-interpolation-filters:sRGB"
       inkscape:label="Drop Shadow"
       id="filter2595">
      <feFlood
         flood-opacity="0.498039"
         flood-color="rgb(0,0,0)"
         result="flood"
         id="feFlood2585" />
      <feComposite
         in="flood"
         in2="SourceGraphic"
         operator="in"
         result="composite1"
         id="feComposite2587" />
      <feGaussianBlur
         in="composite1"
         stdDeviation="0.4"
         result="blur"
         id="feGaussianBlur2589" />
      <feOffset
         dx="2"
         dy="2"
         result="offset"
         id="feOffset2591" />
      <feComposite
         in="SourceGraphic"
         in2="offset"
         operator="over"
         result="composite2"
         id="feComposite2593" />
    </filter>
    <filter
       style="color-interpolation-filters:sRGB"
       inkscape:label="Drop Shadow"
       id="filter2502">
      <feFlood
         flood-opacity="0.498039"
         flood-color="rgb(0,0,0)"
         result="flood"
         id="feFlood2492" />
      <feComposite
         in="flood"
         in2="SourceGraphic"
         operator="in"
         result="composite1"
         id="feComposite2494" />
      <feGaussianBlur
         in="composite1"
         stdDeviation="0.3"
         result="blur"
         id="feGaussianBlur2496" />
      <feOffset
         dx="2"
         dy="2"
         result="offset"
         id="feOffset2498" />
      <feComposite
         in="SourceGraphic"
         in2="offset"
         operator="over"
         result="composite2"
         id="feComposite2500" />
    </filter>
  </defs>
  <sodipodi:namedview
     id="base"
     pagecolor="#ffffff"
     bordercolor="#666666"
     borderopacity="1.0"
     inkscape:pageopacity="0.0"
     inkscape:pageshadow="2"
     inkscape:zoom="0.87443473"
     inkscape:cx="260.16807"
     inkscape:cy="97.777452"
     inkscape:document-units="px"
     inkscape:current-layer="layer2"
     showgrid="false"
     units="px"
     inkscape:window-width="1920"
     inkscape:window-height="1016"
     inkscape:window-x="0"
     inkscape:window-y="27"
     inkscape:window-maximized="1"
     inkscape:snap-object-midpoints="true"
     inkscape:snap-global="true"
     showguides="false"
     inkscape:guide-bbox="true"
     inkscape:measure-start="886.282,1725.97"
     inkscape:measure-end="886.735,1570.32"
     inkscape:snap-bbox="true"
     inkscape:snap-bbox-edge-midpoints="false"
     inkscape:bbox-paths="false"
     inkscape:bbox-nodes="false"
     inkscape:snap-center="true"
     inkscape:snap-bbox-midpoints="true"
     inkscape:snap-nodes="true"
     inkscape:snap-others="true"
     inkscape:object-paths="true"
     inkscape:snap-intersection-paths="true"
     inkscape:snap-smooth-nodes="true"
     inkscape:snap-midpoints="true"
     inkscape:pagecheckerboard="0">
    <inkscape:grid
       type="xygrid"
       id="grid430" />
  </sodipodi:namedview>
  <metadata
     id="metadata5">
    <rdf:RDF>
      <cc:Work
         rdf:about="">
        <dc:format>image/svg+xml</dc:format>
        <dc:type
           rdf:resource="http://purl.org/dc/dcmitype/StillImage" />
      </cc:Work>
    </rdf:RDF>
  </metadata>
  <g
     inkscape:label="Layer 1"
     inkscape:groupmode="layer"
     id="layer1"
     transform="translate(0,-217.625)" />
  <g
     inkscape:groupmode="layer"
     id="layer2"
     inkscape:label="Flight Instruments"
     transform="translate(0,-136.525)">
    <flowRoot
       xml:space="preserve"
       id="flowRoot1653"
       style="font-style:normal;font-variant:normal;font-weight:normal;font-stretch:normal;font-size:21.33333397px;line-height:25px;font-family:Arial;-inkscape-font-specification:Arial;letter-spacing:0px;word-spacing:0px;fill:#000000;fill-opacity:1;stroke:none"
       transform="matrix(0.25101792,0,0,0.25101792,9.1350719,3.7791727)"
       inkscape:export-xdpi="91.078011"
       inkscape:export-ydpi="91.078011"><flowRegion
         id="flowRegion1655"><rect
           id="rect1657"
           width="51.915058"
           height="41.78529"
           x="397.59335"
           y="751.42273" /></flowRegion><flowPara
         id="flowPara1659" /></flowRoot>
    <g
       id="g2067"
       transform="matrix(0.46705991,-0.23387449,0.23387449,0.46705991,39.96475,164.17238)"
       style="filter:url(#filter2379)"
       inkscape:transform-center-x="-2.5867124"
       inkscape:transform-center-y="-9.2465534"
       inkscape:export-xdpi="96.000008"
       inkscape:export-ydpi="96.000008">
      <path
         sodipodi:nodetypes="cccccccc"
         inkscape:connector-curvature="0"
         id="rect2040"
         d="m -13.041445,18.171693 -11.434748,11.474491 c -1.343859,-0.08889 -2.661865,0.399425 -3.623405,1.34245 -1.861559,1.83178 -1.885798,4.825791 -0.05414,6.687471 1.83178,1.861558 4.825791,1.885797 6.687471,0.05414 0.959394,-0.946233 1.469564,-2.256805 1.402411,-3.602645 L -8.6305809,22.654559 Z"
         style="opacity:1;vector-effect:none;fill:#333333;fill-opacity:1;fill-rule:evenodd;stroke:#333333;stroke-width:0.115019;stroke-linecap:butt;stroke-linejoin:miter;stroke-miterlimit:4;stroke-dasharray:none;stroke-dashoffset:0;stroke-opacity:1" />
      <rect
         transform="rotate(45.463836)"
         style="opacity:1;vector-effect:none;fill:#333333;fill-opacity:1;fill-rule:evenodd;stroke:#333333;stroke-width:0.105445;stroke-linecap:butt;stroke-linejoin:miter;stroke-miterlimit:4;stroke-dasharray:none;stroke-dashoffset:0;stroke-opacity:1"
         id="rect2044"
         width="6.2988229"
         height="11.567896"
         x="3.8013535"
         y="13.872553" />
      <path
         sodipodi:nodetypes="cccccc"
         inkscape:connector-curvature="0"
         id="rect2046"
         d="m 26.623019,-20.778072 6.952054,-2.506497 -2.618724,6.910561 -33.7602736,33.218041 -4.3762196,-4.361864 z"
         style="opacity:1;vector-effect:none;fill:#ffffff;fill-opacity:1;fill-rule:evenodd;stroke:#666666;stroke-width:0.225794;stroke-linecap:butt;stroke-linejoin:miter;stroke-miterlimit:4;stroke-dasharray:none;stroke-dashoffset:0;stroke-opacity:1" />
      <circle
         transform="rotate(45.463836)"
         r="5.3975706"
         cy="21.983658"
         cx="6.9507647"
         id="path2036"
         style="opacity:1;vector-effect:none;fill:#333333;fill-opacity:1;fill-rule:evenodd;stroke:#333333;stroke-width:0.1;stroke-linecap:butt;stroke-linejoin:miter;stroke-miterlimit:4;stroke-dasharray:none;stroke-dashoffset:0;stroke-opacity:1" />
      <circle
         style="opacity:1;vector-effect:none;fill:#000000;fill-opacity:1;fill-rule:evenodd;stroke:#000000;stroke-width:0.0219728;stroke-linecap:butt;stroke-linejoin:miter;stroke-miterlimit:4;stroke-dasharray:none;stroke-dashoffset:0;stroke-opacity:1"
         id="circle2038"
         cx="-10.795141"
         cy="20.373003"
         r="1.1859974" />
    </g>
    <path
       style="fill:none;stroke-width:0.35712287"
       d="m 173.10735,112.9135 c -4.31413,-0.60899 -8.14119,-1.8201 -12.39517,-3.92256 -10.6925,-5.28461 -17.63693,-13.908795 -20.98813,-26.064847 -0.62096,-2.252482 -0.74304,-3.733791 -0.75143,-9.117631 -0.009,-5.855819 0.0743,-6.739129 0.93652,-9.919927 1.08923,-4.018115 3.42419,-9.158947 5.64603,-12.430749 5.19883,-7.655618 13.68251,-13.571498 23.07437,-16.09032 3.97036,-1.06482 12.33744,-1.32072 16.65698,-0.50944 19.48458,3.65953 33.24243,21.01393 32.27801,40.716041 -0.87744,17.925119 -13.72412,33.035883 -31.31806,36.837543 -2.951,0.63764 -10.2125,0.91502 -13.13912,0.50189 z m 4.39338,-26.934171 c 0.65557,-0.655571 0.86028,-1.237337 0.8482,-2.410577 -0.0216,-2.094205 1.2097,-5.441946 2.57225,-6.993807 0.97449,-1.109888 1.0932,-1.461953 0.92201,-2.734438 -0.16492,-1.225871 0.4889,-3.467311 4.06928,-13.950414 3.85452,-11.285779 4.24395,-12.654323 4.03949,-14.195634 -0.1816,-1.368956 -0.36239,-1.705757 -0.9156,-1.705757 -0.37912,0 -0.59685,-0.149601 -0.48384,-0.332448 0.113,-0.182844 0.0445,-0.431921 -0.15221,-0.553502 -0.19673,-0.121581 -1.00465,0.389607 -1.79538,1.135974 -1.35773,1.281542 -1.64341,1.96291 -5.13577,12.249276 -2.03394,5.990736 -3.87596,11.333308 -4.0934,11.872382 -0.34626,0.858501 -0.2953,1.045668 0.41064,1.508223 0.44328,0.290448 1.20232,0.594549 1.68675,0.675776 0.53724,0.09009 0.82358,0.337576 0.73412,0.634515 -0.0807,0.267756 -0.11262,1.312397 -0.071,2.321427 0.0658,1.594468 -0.0451,1.929585 -0.84688,2.560267 -1.11981,0.880847 -2.68524,5.220801 -2.68524,7.444504 0,1.24461 -0.1695,1.64733 -0.89281,2.121259 -0.49104,0.321745 -0.8928,0.727214 -0.8928,0.901039 0,0.658739 1.85429,0.279843 2.68219,-0.548065 z m 0.82184,-11.898927 c -0.17928,-0.930923 -1.3613,-1.034746 -1.3613,-0.119565 0,0.511075 0.22936,0.74043 0.74043,0.74043 0.51108,0 0.7034,-0.192317 0.62087,-0.620865 z"
       id="path1193"
       inkscape:connector-curvature="0"
       inkscape:export-xdpi="96.000008"
       inkscape:export-ydpi="96.000008" />
    <path
       style="fill:none;stroke-width:0.35712287"
       d="m 173.10735,112.9135 c -4.31413,-0.60899 -8.14119,-1.8201 -12.39517,-3.92256 -10.6925,-5.28461 -17.63693,-13.908795 -20.98813,-26.064847 -0.62096,-2.252482 -0.74304,-3.733791 -0.75143,-9.117631 -0.009,-5.855819 0.0743,-6.739129 0.93652,-9.919927 1.08923,-4.018115 3.42419,-9.158947 5.64603,-12.430749 5.19883,-7.655618 13.68251,-13.571498 23.07437,-16.09032 3.97036,-1.06482 12.33744,-1.32072 16.65698,-0.50944 19.48458,3.65953 33.24243,21.01393 32.27801,40.716041 -0.87744,17.925119 -13.72412,33.035883 -31.31806,36.837543 -2.951,0.63764 -10.2125,0.91502 -13.13912,0.50189 z m 4.39338,-26.934171 c 0.65557,-0.655571 0.86028,-1.237337 0.8482,-2.410577 -0.0216,-2.094205 1.2097,-5.441946 2.57225,-6.993807 0.97449,-1.109888 1.0932,-1.461953 0.92201,-2.734438 -0.16492,-1.225871 0.4889,-3.467311 4.06928,-13.950414 3.85452,-11.285779 4.24395,-12.654323 4.03949,-14.195634 -0.1816,-1.368956 -0.36239,-1.705757 -0.9156,-1.705757 -0.37912,0 -0.59685,-0.149601 -0.48384,-0.332448 0.113,-0.182844 0.0445,-0.431921 -0.15221,-0.553502 -0.19673,-0.121581 -1.00465,0.389607 -1.79538,1.135974 -1.35773,1.281542 -1.64341,1.96291 -5.13577,12.249276 -2.03394,5.990736 -3.87596,11.333308 -4.0934,11.872382 -0.34626,0.858501 -0.2953,1.045668 0.41064,1.508223 0.44328,0.290448 1.20232,0.594549 1.68675,0.675776 0.53724,0.09009 0.82358,0.337576 0.73412,0.634515 -0.0807,0.267756 -0.11262,1.312397 -0.071,2.321427 0.0658,1.594468 -0.0451,1.929585 -0.84688,2.560267 -1.11981,0.880847 -2.68524,5.220801 -2.68524,7.444504 0,1.24461 -0.1695,1.64733 -0.89281,2.121259 -0.49104,0.321745 -0.8928,0.727214 -0.8928,0.901039 0,0.658739 1.85429,0.279843 2.68219,-0.548065 z m 0.82184,-11.898927 c -0.17928,-0.930923 -1.3613,-1.034746 -1.3613,-0.119565 0,0.511075 0.22936,0.74043 0.74043,0.74043 0.51108,0 0.7034,-0.192317 0.62087,-0.620865 z"
       id="path1195"
       inkscape:connector-curvature="0"
       inkscape:export-xdpi="96.000008"
       inkscape:export-ydpi="96.000008" />
    <path
       style="fill:none;stroke-width:0.35712287"
       d="m 173.10735,112.9135 c -4.31413,-0.60899 -8.14119,-1.8201 -12.39517,-3.92256 -10.6925,-5.28461 -17.63693,-13.908795 -20.98813,-26.064847 -0.62096,-2.252482 -0.74304,-3.733791 -0.75143,-9.117631 -0.009,-5.855819 0.0743,-6.739129 0.93652,-9.919927 1.08923,-4.018115 3.42419,-9.158947 5.64603,-12.430749 5.19883,-7.655618 13.68251,-13.571498 23.07437,-16.09032 3.97036,-1.06482 12.33744,-1.32072 16.65698,-0.50944 19.48458,3.65953 33.24243,21.01393 32.27801,40.716041 -0.87744,17.925119 -13.72412,33.035883 -31.31806,36.837543 -2.951,0.63764 -10.2125,0.91502 -13.13912,0.50189 z m 4.39338,-26.934171 c 0.65557,-0.655571 0.86028,-1.237337 0.8482,-2.410577 -0.0216,-2.094205 1.2097,-5.441946 2.57225,-6.993807 0.97449,-1.109888 1.0932,-1.461953 0.92201,-2.734438 -0.16492,-1.225871 0.4889,-3.467311 4.06928,-13.950414 3.85452,-11.285779 4.24395,-12.654323 4.03949,-14.195634 -0.1816,-1.368956 -0.36239,-1.705757 -0.9156,-1.705757 -0.37912,0 -0.59685,-0.149601 -0.48384,-0.332448 0.113,-0.182844 0.0445,-0.431921 -0.15221,-0.553502 -0.19673,-0.121581 -1.00465,0.389607 -1.79538,1.135974 -1.35773,1.281542 -1.64341,1.96291 -5.13577,12.249276 -2.03394,5.990736 -3.87596,11.333308 -4.0934,11.872382 -0.34626,0.858501 -0.2953,1.045668 0.41064,1.508223 0.44328,0.290448 1.20232,0.594549 1.68675,0.675776 0.53724,0.09009 0.82358,0.337576 0.73412,0.634515 -0.0807,0.267756 -0.11262,1.312397 -0.071,2.321427 0.0658,1.594468 -0.0451,1.929585 -0.84688,2.560267 -1.11981,0.880847 -2.68524,5.220801 -2.68524,7.444504 0,1.24461 -0.1695,1.64733 -0.89281,2.121259 -0.49104,0.321745 -0.8928,0.727214 -0.8928,0.901039 0,0.658739 1.85429,0.279843 2.68219,-0.548065 z m 0.82184,-11.898927 c -0.17928,-0.930923 -1.3613,-1.034746 -1.3613,-0.119565 0,0.511075 0.22936,0.74043 0.74043,0.74043 0.51108,0 0.7034,-0.192317 0.62087,-0.620865 z"
       id="path1197"
       inkscape:connector-curvature="0"
       inkscape:export-xdpi="96.000008"
       inkscape:export-ydpi="96.000008" />
    <path
       style="fill:none;stroke-width:0.35712287"
       d="m 173.10735,112.9135 c -4.31413,-0.60899 -8.14119,-1.8201 -12.39517,-3.92256 -10.6925,-5.28461 -17.63693,-13.908795 -20.98813,-26.064847 -0.62096,-2.252482 -0.74304,-3.733791 -0.75143,-9.117631 -0.009,-5.855819 0.0743,-6.739129 0.93652,-9.919927 1.08923,-4.018115 3.42419,-9.158947 5.64603,-12.430749 5.19883,-7.655618 13.68251,-13.571498 23.07437,-16.09032 3.97036,-1.06482 12.33744,-1.32072 16.65698,-0.50944 19.48458,3.65953 33.24243,21.01393 32.27801,40.716041 -0.87744,17.925119 -13.72412,33.035883 -31.31806,36.837543 -2.951,0.63764 -10.2125,0.91502 -13.13912,0.50189 z m 4.39338,-26.934171 c 0.65557,-0.655571 0.86028,-1.237337 0.8482,-2.410577 -0.0216,-2.094205 1.2097,-5.441946 2.57225,-6.993807 0.97449,-1.109888 1.0932,-1.461953 0.92201,-2.734438 -0.16492,-1.225871 0.4889,-3.467311 4.06928,-13.950414 3.85452,-11.285779 4.24395,-12.654323 4.03949,-14.195634 -0.1816,-1.368956 -0.36239,-1.705757 -0.9156,-1.705757 -0.37912,0 -0.59685,-0.149601 -0.48384,-0.332448 0.113,-0.182844 0.0445,-0.431921 -0.15221,-0.553502 -0.19673,-0.121581 -1.00465,0.389607 -1.79538,1.135974 -1.35773,1.281542 -1.64341,1.96291 -5.13577,12.249276 -2.03394,5.990736 -3.87596,11.333308 -4.0934,11.872382 -0.34626,0.858501 -0.2953,1.045668 0.41064,1.508223 0.44328,0.290448 1.20232,0.594549 1.68675,0.675776 0.53724,0.09009 0.82358,0.337576 0.73412,0.634515 -0.0807,0.267756 -0.11262,1.312397 -0.071,2.321427 0.0658,1.594468 -0.0451,1.929585 -0.84688,2.560267 -1.11981,0.880847 -2.68524,5.220801 -2.68524,7.444504 0,1.24461 -0.1695,1.64733 -0.89281,2.121259 -0.49104,0.321745 -0.8928,0.727214 -0.8928,0.901039 0,0.658739 1.85429,0.279843 2.68219,-0.548065 z m 0.82184,-11.898927 c -0.17928,-0.930923 -1.3613,-1.034746 -1.3613,-0.119565 0,0.511075 0.22936,0.74043 0.74043,0.74043 0.51108,0 0.7034,-0.192317 0.62087,-0.620865 z"
       id="path1199"
       inkscape:connector-curvature="0"
       inkscape:export-xdpi="96.000008"
       inkscape:export-ydpi="96.000008" />
    <path
       style="fill:none;stroke-width:0.35712287"
       d="m 173.10735,112.9135 c -4.31413,-0.60899 -8.14119,-1.8201 -12.39517,-3.92256 -10.6925,-5.28461 -17.63693,-13.908795 -20.98813,-26.064847 -0.62096,-2.252482 -0.74304,-3.733791 -0.75143,-9.117631 -0.009,-5.855819 0.0743,-6.739129 0.93652,-9.919927 1.08923,-4.018115 3.42419,-9.158947 5.64603,-12.430749 5.19883,-7.655618 13.68251,-13.571498 23.07437,-16.09032 3.97036,-1.06482 12.33744,-1.32072 16.65698,-0.50944 19.48458,3.65953 33.24243,21.01393 32.27801,40.716041 -0.87744,17.925119 -13.72412,33.035883 -31.31806,36.837543 -2.951,0.63764 -10.2125,0.91502 -13.13912,0.50189 z m 4.39338,-26.934171 c 0.65557,-0.655571 0.86028,-1.237337 0.8482,-2.410577 -0.0216,-2.094205 1.2097,-5.441946 2.57225,-6.993807 0.97449,-1.109888 1.0932,-1.461953 0.92201,-2.734438 -0.16492,-1.225871 0.4889,-3.467311 4.06928,-13.950414 3.85452,-11.285779 4.24395,-12.654323 4.03949,-14.195634 -0.1816,-1.368956 -0.36239,-1.705757 -0.9156,-1.705757 -0.37912,0 -0.59685,-0.149601 -0.48384,-0.332448 0.113,-0.182844 0.0445,-0.431921 -0.15221,-0.553502 -0.19673,-0.121581 -1.00465,0.389607 -1.79538,1.135974 -1.35773,1.281542 -1.64341,1.96291 -5.13577,12.249276 -2.03394,5.990736 -3.87596,11.333308 -4.0934,11.872382 -0.34626,0.858501 -0.2953,1.045668 0.41064,1.508223 0.44328,0.290448 1.20232,0.594549 1.68675,0.675776 0.53724,0.09009 0.82358,0.337576 0.73412,0.634515 -0.0807,0.267756 -0.11262,1.312397 -0.071,2.321427 0.0658,1.594468 -0.0451,1.929585 -0.84688,2.560267 -1.11981,0.880847 -2.68524,5.220801 -2.68524,7.444504 0,1.24461 -0.1695,1.64733 -0.89281,2.121259 -0.49104,0.321745 -0.8928,0.727214 -0.8928,0.901039 0,0.658739 1.85429,0.279843 2.68219,-0.548065 z m 0.82184,-11.898927 c -0.17928,-0.930923 -1.3613,-1.034746 -1.3613,-0.119565 0,0.511075 0.22936,0.74043 0.74043,0.74043 0.51108,0 0.7034,-0.192317 0.62087,-0.620865 z"
       id="path1201"
       inkscape:connector-curvature="0"
       inkscape:export-xdpi="96.000008"
       inkscape:export-ydpi="96.000008" />
    <path
       style="fill:none;stroke-width:0.35712287"
       d="m 173.10735,112.9135 c -4.31413,-0.60899 -8.14119,-1.8201 -12.39517,-3.92256 -10.6925,-5.28461 -17.63693,-13.908795 -20.98813,-26.064847 -0.62096,-2.252482 -0.74304,-3.733791 -0.75143,-9.117631 -0.009,-5.855819 0.0743,-6.739129 0.93652,-9.919927 1.08923,-4.018115 3.42419,-9.158947 5.64603,-12.430749 5.19883,-7.655618 13.68251,-13.571498 23.07437,-16.09032 3.97036,-1.06482 12.33744,-1.32072 16.65698,-0.50944 19.48458,3.65953 33.24243,21.01393 32.27801,40.716041 -0.87744,17.925119 -13.72412,33.035883 -31.31806,36.837543 -2.951,0.63764 -10.2125,0.91502 -13.13912,0.50189 z m 4.39338,-26.934171 c 0.65557,-0.655571 0.86028,-1.237337 0.8482,-2.410577 -0.0216,-2.094205 1.2097,-5.441946 2.57225,-6.993807 0.97449,-1.109888 1.0932,-1.461953 0.92201,-2.734438 -0.16492,-1.225871 0.4889,-3.467311 4.06928,-13.950414 3.85452,-11.285779 4.24395,-12.654323 4.03949,-14.195634 -0.1816,-1.368956 -0.36239,-1.705757 -0.9156,-1.705757 -0.37912,0 -0.59685,-0.149601 -0.48384,-0.332448 0.113,-0.182844 0.0445,-0.431921 -0.15221,-0.553502 -0.19673,-0.121581 -1.00465,0.389607 -1.79538,1.135974 -1.35773,1.281542 -1.64341,1.96291 -5.13577,12.249276 -2.03394,5.990736 -3.87596,11.333308 -4.0934,11.872382 -0.34626,0.858501 -0.2953,1.045668 0.41064,1.508223 0.44328,0.290448 1.20232,0.594549 1.68675,0.675776 0.53724,0.09009 0.82358,0.337576 0.73412,0.634515 -0.0807,0.267756 -0.11262,1.312397 -0.071,2.321427 0.0658,1.594468 -0.0451,1.929585 -0.84688,2.560267 -1.11981,0.880847 -2.68524,5.220801 -2.68524,7.444504 0,1.24461 -0.1695,1.64733 -0.89281,2.121259 -0.49104,0.321745 -0.8928,0.727214 -0.8928,0.901039 0,0.658739 1.85429,0.279843 2.68219,-0.548065 z m 0.82184,-11.898927 c -0.17928,-0.930923 -1.3613,-1.034746 -1.3613,-0.119565 0,0.511075 0.22936,0.74043 0.74043,0.74043 0.51108,0 0.7034,-0.192317 0.62087,-0.620865 z"
       id="path1203"
       inkscape:connector-curvature="0"
       inkscape:export-xdpi="96.000008"
       inkscape:export-ydpi="96.000008" />
    <path
       style="fill:none;stroke-width:0.35712287"
       d="m 173.10735,112.9135 c -4.31413,-0.60899 -8.14119,-1.8201 -12.39517,-3.92256 -10.6925,-5.28461 -17.63693,-13.908795 -20.98813,-26.064847 -0.62096,-2.252482 -0.74304,-3.733791 -0.75143,-9.117631 -0.009,-5.855819 0.0743,-6.739129 0.93652,-9.919927 1.08923,-4.018115 3.42419,-9.158947 5.64603,-12.430749 5.19883,-7.655618 13.68251,-13.571498 23.07437,-16.09032 3.97036,-1.06482 12.33744,-1.32072 16.65698,-0.50944 19.48458,3.65953 33.24243,21.01393 32.27801,40.716041 -0.87744,17.925119 -13.72412,33.035883 -31.31806,36.837543 -2.951,0.63764 -10.2125,0.91502 -13.13912,0.50189 z m 4.39338,-26.934171 c 0.65557,-0.655571 0.86028,-1.237337 0.8482,-2.410577 -0.0216,-2.094205 1.2097,-5.441946 2.57225,-6.993807 0.97449,-1.109888 1.0932,-1.461953 0.92201,-2.734438 -0.16492,-1.225871 0.4889,-3.467311 4.06928,-13.950414 3.85452,-11.285779 4.24395,-12.654323 4.03949,-14.195634 -0.1816,-1.368956 -0.36239,-1.705757 -0.9156,-1.705757 -0.37912,0 -0.59685,-0.149601 -0.48384,-0.332448 0.113,-0.182844 0.0445,-0.431921 -0.15221,-0.553502 -0.19673,-0.121581 -1.00465,0.389607 -1.79538,1.135974 -1.35773,1.281542 -1.64341,1.96291 -5.13577,12.249276 -2.03394,5.990736 -3.87596,11.333308 -4.0934,11.872382 -0.34626,0.858501 -0.2953,1.045668 0.41064,1.508223 0.44328,0.290448 1.20232,0.594549 1.68675,0.675776 0.53724,0.09009 0.82358,0.337576 0.73412,0.634515 -0.0807,0.267756 -0.11262,1.312397 -0.071,2.321427 0.0658,1.594468 -0.0451,1.929585 -0.84688,2.560267 -1.11981,0.880847 -2.68524,5.220801 -2.68524,7.444504 0,1.24461 -0.1695,1.64733 -0.89281,2.121259 -0.49104,0.321745 -0.8928,0.727214 -0.8928,0.901039 0,0.658739 1.85429,0.279843 2.68219,-0.548065 z m 0.82184,-11.898927 c -0.17928,-0.930923 -1.3613,-1.034746 -1.3613,-0.119565 0,0.511075 0.22936,0.74043 0.74043,0.74043 0.51108,0 0.7034,-0.192317 0.62087,-0.620865 z"
       id="path1205"
       inkscape:connector-curvature="0"
       inkscape:export-xdpi="96.000008"
       inkscape:export-ydpi="96.000008" />
    <path
       style="fill:none;stroke-width:0.35712287"
       d="m 173.10735,112.9135 c -4.31413,-0.60899 -8.14119,-1.8201 -12.39517,-3.92256 -10.6925,-5.28461 -17.63693,-13.908795 -20.98813,-26.064847 -0.62096,-2.252482 -0.74304,-3.733791 -0.75143,-9.117631 -0.009,-5.855819 0.0743,-6.739129 0.93652,-9.919927 1.08923,-4.018115 3.42419,-9.158947 5.64603,-12.430749 5.19883,-7.655618 13.68251,-13.571498 23.07437,-16.09032 3.97036,-1.06482 12.33744,-1.32072 16.65698,-0.50944 19.48458,3.65953 33.24243,21.01393 32.27801,40.716041 -0.87744,17.925119 -13.72412,33.035883 -31.31806,36.837543 -2.951,0.63764 -10.2125,0.91502 -13.13912,0.50189 z m 2.87184,-26.306571 c -0.24553,-0.09907 -0.64729,-0.09907 -0.89281,0 -0.24552,0.09907 -0.0446,0.180131 0.4464,0.180131 0.49105,0 0.69193,-0.08106 0.44641,-0.180131 z m 0.87244,-3.238635 c -0.0905,-0.347469 -0.17058,-0.149645 -0.17786,0.439607 -0.007,0.589252 0.0668,0.873545 0.16463,0.631762 0.0978,-0.241783 0.10378,-0.7239 0.0132,-1.071369 z m 1.42497,0.551207 c -0.11401,-0.284887 -0.19863,-0.200267 -0.21576,0.215765 -0.0155,0.376464 0.0689,0.587392 0.18756,0.468724 0.11867,-0.118674 0.13136,-0.426691 0.0282,-0.684489 z m 2.14495,-10.557444 c -0.0898,-0.343729 -0.16332,-0.0625 -0.16332,0.624966 0,0.687461 0.0735,0.968696 0.16332,0.624965 0.0898,-0.343732 0.0898,-0.9062 0,-1.249931 z m 1.41884,0.535684 c -0.0991,-0.24552 -0.18013,-0.04464 -0.18013,0.446403 0,0.491046 0.0811,0.691926 0.18013,0.446405 0.0991,-0.245523 0.0991,-0.647285 0,-0.892808 z m -3.51782,0.182661 c -0.17928,-0.930923 -1.3613,-1.034746 -1.3613,-0.119565 0,0.511075 0.22936,0.74043 0.74043,0.74043 0.51108,0 0.7034,-0.192317 0.62087,-0.620865 z m 3.16813,-1.58883 c -0.114,-0.284888 -0.19862,-0.20027 -0.21576,0.215762 -0.0155,0.376464 0.0689,0.587392 0.18757,0.468723 0.11867,-0.118671 0.13135,-0.42669 0.0282,-0.684485 z m -0.21749,-2.681078 c 0.1925,-0.506308 0.39508,-1.215921 0.45017,-1.576919 0.0551,-0.360997 0.21144,-0.767636 0.34745,-0.903642 0.36348,-0.363482 0.30189,-2.346882 -0.0658,-2.119623 -0.17221,0.106429 -0.61415,1.170085 -0.98209,2.363675 -0.64818,2.102679 -0.70148,2.163832 -1.71431,1.966582 -0.57493,-0.111971 -1.09375,-0.252002 -1.15292,-0.311182 -0.0592,-0.05918 0.85315,-2.937853 2.02741,-6.397051 1.17426,-3.459198 2.13502,-6.574998 2.13502,-6.924001 0,-1.396626 -0.75749,0.267565 -2.45993,5.404457 -0.97578,2.944267 -2.02226,5.939919 -2.32552,6.657002 -0.6008,1.420654 -0.42945,1.768083 1.16251,2.356981 1.54791,0.572612 2.21482,0.439058 2.57803,-0.516279 z m 1.87599,-5.666037 c 0.0731,-0.380907 0.23681,-0.933618 0.36371,-1.228243 0.1269,-0.294627 1.36838,-3.830144 2.75884,-7.856703 1.80749,-5.234251 2.5223,-7.804541 2.50777,-9.017354 -0.0208,-1.736407 0.50799,-2.336954 0.78614,-0.892806 0.1327,0.688942 0.16171,0.663478 0.2034,-0.178561 0.0381,-0.769137 -0.11081,-0.982088 -0.68669,-0.982088 -0.40442,0 -0.64286,-0.149601 -0.52985,-0.332448 0.113,-0.182844 0.0486,-0.429364 -0.14303,-0.547821 -0.19166,-0.118456 -0.98768,0.362105 -1.76893,1.067915 -1.21991,1.102119 -1.62949,1.897911 -2.90112,5.636823 -0.81437,2.394443 -1.56106,4.554414 -1.65932,4.799935 -0.0983,0.245523 0.0758,0.446405 0.3868,0.446405 0.31099,0 0.56544,-0.227736 0.56544,-0.506077 0,-0.278344 0.32614,-1.266917 0.72474,-2.196831 0.39861,-0.929916 0.76485,-1.947648 0.81386,-2.261626 0.049,-0.313979 0.18389,-0.731577 0.29973,-0.927993 0.11584,-0.196419 0.41463,-0.989275 0.66397,-1.761903 0.44734,-1.386146 1.9806,-3.302954 2.23046,-2.788422 0.60672,1.249389 -0.17524,4.454707 -2.74364,11.246378 -0.50139,1.325819 -0.81296,2.410578 -0.69239,2.410578 0.12057,0 0.0616,0.200882 -0.13102,0.446405 -0.60504,0.77117 -1.52283,3.912449 -1.52283,5.212139 0,1.297582 0.24453,1.407114 0.47396,0.212298 z m 5.48396,-12.723137 c -0.114,-0.284887 -0.19863,-0.200264 -0.21576,0.215763 -0.0155,0.376466 0.0689,0.587392 0.18757,0.468723 0.11867,-0.118669 0.13135,-0.426688 0.0282,-0.684486 z m 1.42849,-4.642596 c -0.114,-0.284888 -0.19862,-0.200267 -0.21576,0.215762 -0.0155,0.376467 0.0689,0.587392 0.18757,0.468723 0.11867,-0.118668 0.13135,-0.426687 0.0282,-0.684485 z"
       id="path1207"
       inkscape:connector-curvature="0"
       inkscape:export-xdpi="96.000008"
       inkscape:export-ydpi="96.000008" />
    <path
       style="fill:none;stroke-width:0.35712287"
       d="m 173.10735,112.9135 c -4.31413,-0.60899 -8.14119,-1.8201 -12.39517,-3.92256 -10.6925,-5.28461 -17.63693,-13.908795 -20.98813,-26.064847 -0.62096,-2.252482 -0.74304,-3.733791 -0.75143,-9.117631 -0.009,-5.855819 0.0743,-6.739129 0.93652,-9.919927 1.08923,-4.018115 3.42419,-9.158947 5.64603,-12.430749 5.19883,-7.655618 13.68251,-13.571498 23.07437,-16.09032 3.97036,-1.06482 12.33744,-1.32072 16.65698,-0.50944 19.48458,3.65953 33.24243,21.01393 32.27801,40.716041 -0.87744,17.925119 -13.72412,33.035883 -31.31806,36.837543 -2.951,0.63764 -10.2125,0.91502 -13.13912,0.50189 z m 4.39338,-26.934171 c 0.65557,-0.655571 0.86028,-1.237337 0.8482,-2.410577 -0.0212,-2.058955 1.20261,-5.433868 2.51064,-6.923642 0.96133,-1.094893 1.05104,-1.414815 0.99204,-3.537967 -0.0538,-1.93691 -0.16858,-2.334226 -0.67424,-2.334226 -0.90782,0 -1.26704,0.938441 -1.08488,2.834216 0.14451,1.503919 0.0569,1.776958 -0.78144,2.436425 -1.14167,0.898034 -2.7069,5.212578 -2.7069,7.461538 0,1.24461 -0.1695,1.64733 -0.89281,2.121259 -0.49104,0.321745 -0.8928,0.727214 -0.8928,0.901039 0,0.658739 1.85429,0.279843 2.68219,-0.548065 z m 0.82184,-11.898927 c -0.17928,-0.930923 -1.3613,-1.034746 -1.3613,-0.119565 0,0.511075 0.22936,0.74043 0.74043,0.74043 0.51108,0 0.7034,-0.192317 0.62087,-0.620865 z m 3.86919,-7.446725 c 1.15453,-3.492169 1.45303,-4.989544 0.92988,-4.664639 -0.14731,0.09149 -0.83031,1.869092 -1.51777,3.950227 l -1.24993,3.783879 -1.07137,-0.221077 c -0.58925,-0.121593 -1.10698,-0.251309 -1.1505,-0.288256 -0.0435,-0.03695 0.55739,-1.905841 1.33538,-4.153094 0.82862,-2.393529 1.32217,-4.376867 1.19157,-4.788355 -0.15712,-0.495033 -0.61373,0.453572 -1.54643,3.212723 -0.72792,2.153342 -1.50104,4.344656 -1.71805,4.86959 -0.43779,1.059012 -0.17621,1.444296 1.37159,2.020262 1.6548,0.615787 2.18063,0.04459 3.42563,-3.72126 z m 2.58664,-7.377974 c 0.38685,-1.227609 1.44524,-4.391024 2.35199,-7.029813 1.32666,-3.860836 1.63388,-5.206402 1.57311,-6.890105 -0.0415,-1.150767 -0.20721,-2.173707 -0.36818,-2.273196 -0.16098,-0.09949 -0.93727,0.42977 -1.72509,1.176137 -1.28617,1.218496 -1.65128,2.003374 -3.5765,7.688483 -2.22227,6.562274 -2.35174,7.060653 -1.8343,7.060653 0.1704,0 0.72715,-1.245466 1.23723,-2.767702 0.51008,-1.522237 1.25389,-3.611404 1.65291,-4.642599 0.39903,-1.031191 0.62612,-1.874895 0.50466,-1.874895 -0.12145,0 -0.0614,-0.20088 0.13348,-0.446403 0.19487,-0.245521 0.55816,-1.078554 0.80731,-1.851182 0.24915,-0.772628 0.82527,-1.777056 1.28028,-2.232061 l 0.82728,-0.82728 0.23343,1.244301 c 0.241,1.284604 -0.41321,3.590834 -3.22217,11.35893 -1.31594,3.639185 -1.4986,4.53875 -0.92158,4.53875 0.18853,0 0.65929,-1.004408 1.04614,-2.232018 z"
       id="path1209"
       inkscape:connector-curvature="0"
       inkscape:export-xdpi="96.000008"
       inkscape:export-ydpi="96.000008" />
  </g>
</svg>
