<?xml version="1.0" encoding="UTF-8" standalone="no"?>
<svg
   xmlns:dc="http://purl.org/dc/elements/1.1/"
   xmlns:cc="http://creativecommons.org/ns#"
   xmlns:rdf="http://www.w3.org/1999/02/22-rdf-syntax-ns#"
   xmlns:svg="http://www.w3.org/2000/svg"
   xmlns="http://www.w3.org/2000/svg"
   xmlns:sodipodi="http://sodipodi.sourceforge.net/DTD/sodipodi-0.dtd"
   xmlns:inkscape="http://www.inkscape.org/namespaces/inkscape"
   width="300"
   height="300"
   viewBox="0 0 79.374999 79.374996"
   version="1.1"
   id="svg2181"
   inkscape:version="1.0.2 (e86c870879, 2021-01-15)"
   sodipodi:docname="attitude_indicator_pointer.svg">
  <defs
     id="defs2175">
    <filter
       style="color-interpolation-filters:sRGB"
       inkscape:label="Drop Shadow"
       id="filter2559">
      <feFlood
         flood-opacity="0.498039"
         flood-color="rgb(0,0,0)"
         result="flood"
         id="feFlood2549" />
      <feComposite
         in="flood"
         in2="SourceGraphic"
         operator="in"
         result="composite1"
         id="feComposite2551" />
      <feGaussianBlur
         in="composite1"
         stdDeviation="0.7"
         result="blur"
         id="feGaussianBlur2553" />
      <feOffset
         dx="2"
         dy="2"
         result="offset"
         id="feOffset2555" />
      <feComposite
         in="SourceGraphic"
         in2="offset"
         operator="over"
         result="composite2"
         id="feComposite2557" />
    </filter>
  </defs>
  <sodipodi:namedview
     id="base"
     pagecolor="#ffffff"
     bordercolor="#666666"
     borderopacity="1.0"
     inkscape:pageopacity="0.0"
     inkscape:pageshadow="2"
     inkscape:zoom="1.4"
     inkscape:cx="11.65562"
     inkscape:cy="128.47739"
     inkscape:document-units="mm"
     inkscape:current-layer="layer1"
     inkscape:document-rotation="0"
     showgrid="false"
     inkscape:window-width="1580"
     inkscape:window-height="939"
     inkscape:window-x="26"
     inkscape:window-y="23"
     inkscape:window-maximized="0"
     fit-margin-top="0"
     fit-margin-left="0"
     fit-margin-right="0"
     fit-margin-bottom="0"
     units="px" />
  <metadata
     id="metadata2178">
    <rdf:RDF>
      <cc:Work
         rdf:about="">
        <dc:format>image/svg+xml</dc:format>
        <dc:type
           rdf:resource="http://purl.org/dc/dcmitype/StillImage" />
        <dc:title></dc:title>
      </cc:Work>
    </rdf:RDF>
  </metadata>
  <g
     inkscape:label="Layer 1"
     inkscape:groupmode="layer"
     id="layer1"
     transform="translate(-66.371614,-112.48613)">
    <g
       id="g389"
       transform="matrix(0.99999814,0,0,1.0000358,-104.68434,-1.6670353)"
       inkscape:export-xdpi="96"
       inkscape:export-ydpi="96">
      <path
         id="circle1481"
         style="opacity:1;vector-effect:none;fill:#333333;fill-opacity:1;fill-rule:evenodd;stroke:#000000;stroke-width:0.058946;stroke-linecap:butt;stroke-linejoin:miter;stroke-miterlimit:4;stroke-dasharray:none;stroke-dashoffset:0;stroke-opacity:1"
         d="m 210.55367,114.17743 a 39.658028,39.658028 0 0 0 -39.46787,39.65804 39.658028,39.658028 0 0 0 39.65804,39.65753 39.658028,39.658028 0 0 0 39.65805,-39.65753 39.658028,39.658028 0 0 0 -39.65805,-39.65804 39.658028,39.658028 0 0 0 -0.19017,0 z m 0.19017,2.62361 a 36.942977,37.034014 0 0 1 36.94297,37.03443 36.942977,37.034014 0 0 1 -36.94297,37.03392 36.942977,37.034014 0 0 1 -36.94296,-37.03392 36.942977,37.034014 0 0 1 36.94296,-37.03443 z" />
      <circle
         r="1.6062727"
         cy="154.53267"
         cx="210.74368"
         id="circle1479"
         style="vector-effect:none;fill:#e84e12;fill-opacity:1;fill-rule:evenodd;stroke:none;stroke-width:0.00238749;stroke-linecap:butt;stroke-linejoin:miter;stroke-miterlimit:4;stroke-dasharray:none;stroke-dashoffset:0;stroke-opacity:1" />
      <path
         style="vector-effect:none;fill:#282725;fill-opacity:1;fill-rule:evenodd;stroke:#000000;stroke-width:0.0530552;stroke-linecap:butt;stroke-linejoin:miter;stroke-miterlimit:4;stroke-dasharray:none;stroke-dashoffset:0;stroke-opacity:1"
         d="m 209.73845,154.92784 v 6.08439 h -0.79427 v 4.39961 h -2.60956 l -5.53905,7.87802 h -21.6367 a 37.213204,37.213204 0 0 0 0.27115,0.47266 37.213204,37.213204 0 0 0 2.16374,3.02575 37.213204,37.213204 0 0 0 2.45492,2.79462 37.213204,37.213204 0 0 0 2.7217,2.53552 37.213204,37.213204 0 0 0 2.96131,2.25121 37.213204,37.213204 0 0 0 3.17105,1.94415 37.213204,37.213204 0 0 0 3.34955,1.61816 37.213204,37.213204 0 0 0 3.49429,1.27543 37.213204,37.213204 0 0 0 3.60397,0.92012 37.213204,37.213204 0 0 0 3.678,0.55602 37.213204,37.213204 0 0 0 3.71528,0.18589 37.213204,37.213204 0 0 0 2.63231,-0.0932 37.213204,37.213204 0 0 0 3.69253,-0.44827 37.213204,37.213204 0 0 0 3.62947,-0.81456 37.213204,37.213204 0 0 0 3.53022,-1.17291 37.213204,37.213204 0 0 0 3.39504,-1.51945 37.213204,37.213204 0 0 0 3.22672,-1.85092 37.213204,37.213204 0 0 0 3.02574,-2.16375 37.213204,37.213204 0 0 0 2.79462,-2.45493 37.213204,37.213204 0 0 0 2.53552,-2.72169 37.213204,37.213204 0 0 0 2.25123,-2.96131 37.213204,37.213204 0 0 0 0.84499,-1.37853 h -21.58927 l -5.45738,-7.87801 h -2.66602 v -4.39962 h -0.8576 v -6.08438 z"
         id="path1263"
         inkscape:connector-curvature="0" />
      <circle
         style="vector-effect:none;fill:#e84e12;fill-opacity:1;fill-rule:evenodd;stroke:#000000;stroke-width:0.00238749;stroke-linecap:butt;stroke-linejoin:miter;stroke-miterlimit:4;stroke-dasharray:none;stroke-dashoffset:0;stroke-opacity:1"
         id="circle1811"
         cx="210.74368"
         cy="154.53267"
         r="1.6062727" />
      <path
         style="vector-effect:none;fill:#e84e12;fill-opacity:1;fill-rule:evenodd;stroke:none;stroke-width:0.0538646;stroke-linecap:butt;stroke-linejoin:miter;stroke-miterlimit:4;stroke-dasharray:none;stroke-dashoffset:0;stroke-opacity:1"
         d="m 193.76335,153.21422 c -0.5342,0 -0.96452,0.41682 -0.96452,0.93465 0,0.51784 0.43032,0.93465 0.96452,0.93465 h 9.21652 c 0.4689,3.85297 3.74904,6.83843 7.72859,6.83835 3.97954,-7e-5 7.25957,-2.98561 7.72831,-6.83863 h 9.42023 c 0.5442,0 0.98234,-0.41694 0.98234,-0.93465 0,-0.51769 -0.43814,-0.93437 -0.98234,-0.93437 h -9.42078 -0.58727 -0.11488 c -0.54422,0 -0.98234,0.41668 -0.98234,0.93437 0,0.0359 0.003,0.0713 0.006,0.10611 -0.003,0.16139 -0.0113,0.32271 -0.0275,0.48336 -0.02,0.20079 -0.0502,0.40046 -0.0902,0.59824 -0.0402,0.19776 -0.0901,0.3934 -0.14969,0.58618 -0.0597,0.19279 -0.12894,0.38248 -0.20756,0.56835 -0.0785,0.18587 -0.16644,0.36769 -0.2632,0.54478 -0.0967,0.17707 -0.20222,0.34918 -0.31612,0.51571 -0.11399,0.16659 -0.23624,0.32736 -0.36629,0.48172 -0.12998,0.15438 -0.26761,0.30216 -0.41235,0.44279 -0.14479,0.14056 -0.29649,0.27378 -0.45457,0.39919 -0.15808,0.12547 -0.32233,0.24297 -0.49215,0.35204 -0.16979,0.10903 -0.34492,0.2095 -0.52476,0.30103 -0.17992,0.0915 -0.36429,0.17395 -0.55245,0.24703 -0.18807,0.0731 -0.37968,0.13683 -0.57412,0.19083 -0.19442,0.054 -0.39144,0.0982 -0.59028,0.13242 -0.1989,0.0343 -0.39939,0.0587 -0.60071,0.0729 -0.14244,0.0102 -0.28518,0.0153 -0.42798,0.0153 -0.20182,-1.4e-4 -0.40349,-0.0104 -0.60427,-0.0307 -0.2008,-0.0202 -0.40046,-0.0504 -0.59825,-0.0905 -0.19784,-0.0401 -0.39358,-0.09 -0.58644,-0.1497 -0.19278,-0.0596 -0.38248,-0.12875 -0.56835,-0.20727 -0.18587,-0.0786 -0.3677,-0.16644 -0.54478,-0.26321 -0.17707,-0.0968 -0.3492,-0.2024 -0.51571,-0.31639 -0.16658,-0.1139 -0.32736,-0.23606 -0.48173,-0.36602 -0.15428,-0.12998 -0.30196,-0.26761 -0.44251,-0.41235 -0.14065,-0.14477 -0.27397,-0.29648 -0.39946,-0.45457 -0.12548,-0.15808 -0.24296,-0.32233 -0.35204,-0.49214 -0.10903,-0.16979 -0.2095,-0.34493 -0.30104,-0.52476 -0.0915,-0.17991 -0.17394,-0.3643 -0.24702,-0.55245 -0.0731,-0.18807 -0.13682,-0.37969 -0.19083,-0.57412 -0.0539,-0.19443 -0.0982,-0.39143 -0.13241,-0.59028 -0.0343,-0.1989 -0.0587,-0.39939 -0.073,-0.60071 -0.007,-0.10186 -0.0109,-0.2039 -0.0129,-0.30598 0.004,-0.035 0.006,-0.0706 0.006,-0.10665 0,-0.50707 -0.41261,-0.91617 -0.93136,-0.933 l -9.6e-4,-0.002 h -0.0317 -0.71586 z"
         id="path1275"
         inkscape:connector-curvature="0" />
      <path
         style="vector-effect:none;fill:#282725;fill-opacity:1;fill-rule:evenodd;stroke:none;stroke-width:0.0538646;stroke-linecap:butt;stroke-linejoin:miter;stroke-miterlimit:4;stroke-dasharray:none;stroke-dashoffset:0;stroke-opacity:1"
         d="m 205.07728,156.35016 -1.63077,0.52284 c 1.1115,2.94327 3.92953,5.04891 7.26196,5.04885 3.33991,-6e-5 6.16382,-2.11483 7.2699,-5.06859 l -1.63571,-0.52476 c -0.0209,0.0537 -0.0368,0.10923 -0.0593,0.16231 -0.0785,0.18586 -0.16644,0.36768 -0.2632,0.54477 -0.0967,0.17707 -0.20222,0.34919 -0.31611,0.51572 -0.114,0.16658 -0.23625,0.32735 -0.3663,0.48172 -0.12998,0.15437 -0.2676,0.30215 -0.41235,0.44278 -0.14478,0.14056 -0.29649,0.27379 -0.45458,0.39919 -0.15807,0.12548 -0.32232,0.24297 -0.49213,0.35203 -0.1698,0.10904 -0.34493,0.20951 -0.52477,0.30105 -0.17992,0.0915 -0.36429,0.17394 -0.55244,0.24702 -0.18808,0.0731 -0.37969,0.13682 -0.57412,0.19082 -0.19443,0.054 -0.39144,0.0982 -0.59029,0.13243 -0.19889,0.0343 -0.39939,0.0587 -0.60071,0.0729 -0.14243,0.0102 -0.28518,0.0153 -0.42798,0.0153 -0.20181,-1.4e-4 -0.40349,-0.0104 -0.60427,-0.0307 -0.20079,-0.0202 -0.40045,-0.0503 -0.59824,-0.0905 -0.19785,-0.0401 -0.39358,-0.0901 -0.58645,-0.1497 -0.19278,-0.0596 -0.38248,-0.12875 -0.56835,-0.20727 -0.18587,-0.0786 -0.3677,-0.16644 -0.54478,-0.2632 -0.17708,-0.0968 -0.34919,-0.2024 -0.51572,-0.3164 -0.16657,-0.1139 -0.32734,-0.23606 -0.48171,-0.36601 -0.15429,-0.12999 -0.30197,-0.26762 -0.44251,-0.41235 -0.14065,-0.14478 -0.27399,-0.29649 -0.39948,-0.45458 -0.12547,-0.15808 -0.24295,-0.32232 -0.35203,-0.49214 -0.10901,-0.16979 -0.2095,-0.34493 -0.30104,-0.52476 -0.0876,-0.17225 -0.16587,-0.34904 -0.2366,-0.52887 z"
         id="path1313"
         inkscape:connector-curvature="0" />
      <path
         inkscape:connector-curvature="0"
         id="path2507"
         d="m 152.4739,-265.45898 -5.23121,14.72262 h 10.46293 z m 0,6.91947 1.81022,5.09375 h -3.61993 z"
         style="vector-effect:none;fill:#e84e12;fill-opacity:1;fill-rule:evenodd;stroke:none;stroke-width:0.0546777;stroke-linecap:butt;stroke-linejoin:miter;stroke-miterlimit:4;stroke-dasharray:none;stroke-dashoffset:0;stroke-opacity:1;filter:url(#filter2559)"
         transform="matrix(0.53055212,0,0,0.53055212,130.35506,264.40113)" />
    </g>
  </g>
</svg>
