<?xml version="1.0" encoding="UTF-8" standalone="no"?>
<svg
   xmlns:dc="http://purl.org/dc/elements/1.1/"
   xmlns:cc="http://creativecommons.org/ns#"
   xmlns:rdf="http://www.w3.org/1999/02/22-rdf-syntax-ns#"
   xmlns:svg="http://www.w3.org/2000/svg"
   xmlns="http://www.w3.org/2000/svg"
   xmlns:sodipodi="http://sodipodi.sourceforge.net/DTD/sodipodi-0.dtd"
   xmlns:inkscape="http://www.inkscape.org/namespaces/inkscape"
   width="300"
   height="300"
   viewBox="0 0 79.375003 79.375003"
   version="1.1"
   id="svg8"
   inkscape:version="1.0.2 (e86c870879, 2021-01-15)"
   sodipodi:docname="attitude_indicator_roll.svg">
  <defs
     id="defs2">
    <clipPath
       clipPathUnits="userSpaceOnUse"
       id="clipPath1260">
      <rect
         style="opacity:1;vector-effect:none;fill:#000000;fill-opacity:1;fill-rule:evenodd;stroke:#000000;stroke-width:0.1;stroke-linecap:butt;stroke-linejoin:miter;stroke-miterlimit:4;stroke-dasharray:none;stroke-dashoffset:0;stroke-opacity:1"
         id="rect1262"
         width="12.415953"
         height="17.566673"
         x="232.11423"
         y="-69.494537"
         transform="rotate(39)" />
    </clipPath>
    <clipPath
       clipPathUnits="userSpaceOnUse"
       id="clipPath1264">
      <rect
         style="opacity:1;vector-effect:none;fill:#000000;fill-opacity:1;fill-rule:evenodd;stroke:#000000;stroke-width:0.1;stroke-linecap:butt;stroke-linejoin:miter;stroke-miterlimit:4;stroke-dasharray:none;stroke-dashoffset:0;stroke-opacity:1"
         id="rect1266"
         width="12.415953"
         height="17.566673"
         x="232.11423"
         y="-69.494537"
         transform="rotate(39)" />
    </clipPath>
    <clipPath
       clipPathUnits="userSpaceOnUse"
       id="clipPath1268">
      <rect
         style="opacity:1;vector-effect:none;fill:#000000;fill-opacity:1;fill-rule:evenodd;stroke:#000000;stroke-width:0.1;stroke-linecap:butt;stroke-linejoin:miter;stroke-miterlimit:4;stroke-dasharray:none;stroke-dashoffset:0;stroke-opacity:1"
         id="rect1270"
         width="12.415953"
         height="17.566673"
         x="232.11423"
         y="-69.494537"
         transform="rotate(39)" />
    </clipPath>
    <clipPath
       clipPathUnits="userSpaceOnUse"
       id="clipPath1272">
      <rect
         style="opacity:1;vector-effect:none;fill:#000000;fill-opacity:1;fill-rule:evenodd;stroke:#000000;stroke-width:0.1;stroke-linecap:butt;stroke-linejoin:miter;stroke-miterlimit:4;stroke-dasharray:none;stroke-dashoffset:0;stroke-opacity:1"
         id="rect1274"
         width="12.415953"
         height="17.566673"
         x="232.11423"
         y="-69.494537"
         transform="rotate(39)" />
    </clipPath>
    <filter
       inkscape:collect="always"
       style="color-interpolation-filters:sRGB"
       id="filter1374"
       x="-0.027571492"
       width="1.055143"
       y="-0.051850524"
       height="1.103701">
      <feGaussianBlur
         inkscape:collect="always"
         stdDeviation="1.141256"
         id="feGaussianBlur1376" />
    </filter>
    <filter
       inkscape:collect="always"
       style="color-interpolation-filters:sRGB"
       id="filter1417"
       x="-0.016372265"
       width="1.0327445"
       y="-0.044934865"
       height="1.0898697">
      <feGaussianBlur
         inkscape:collect="always"
         stdDeviation="0.6762173"
         id="feGaussianBlur1419" />
    </filter>
    <filter
       style="color-interpolation-filters:sRGB"
       inkscape:label="Drop Shadow"
       id="filter2379">
      <feFlood
         flood-opacity="0.498039"
         flood-color="rgb(0,0,0)"
         result="flood"
         id="feFlood2369" />
      <feComposite
         in="flood"
         in2="SourceGraphic"
         operator="in"
         result="composite1"
         id="feComposite2371" />
      <feGaussianBlur
         in="composite1"
         stdDeviation="0.7"
         result="blur"
         id="feGaussianBlur2373" />
      <feOffset
         dx="2"
         dy="2"
         result="offset"
         id="feOffset2375" />
      <feComposite
         in="SourceGraphic"
         in2="offset"
         operator="over"
         result="composite2"
         id="feComposite2377" />
    </filter>
    <filter
       style="color-interpolation-filters:sRGB"
       inkscape:label="Drop Shadow"
       id="filter2559">
      <feFlood
         flood-opacity="0.498039"
         flood-color="rgb(0,0,0)"
         result="flood"
         id="feFlood2549" />
      <feComposite
         in="flood"
         in2="SourceGraphic"
         operator="in"
         result="composite1"
         id="feComposite2551" />
      <feGaussianBlur
         in="composite1"
         stdDeviation="0.7"
         result="blur"
         id="feGaussianBlur2553" />
      <feOffset
         dx="2"
         dy="2"
         result="offset"
         id="feOffset2555" />
      <feComposite
         in="SourceGraphic"
         in2="offset"
         operator="over"
         result="composite2"
         id="feComposite2557" />
    </filter>
    <filter
       style="color-interpolation-filters:sRGB"
       inkscape:label="Drop Shadow"
       id="filter2595">
      <feFlood
         flood-opacity="0.498039"
         flood-color="rgb(0,0,0)"
         result="flood"
         id="feFlood2585" />
      <feComposite
         in="flood"
         in2="SourceGraphic"
         operator="in"
         result="composite1"
         id="feComposite2587" />
      <feGaussianBlur
         in="composite1"
         stdDeviation="0.4"
         result="blur"
         id="feGaussianBlur2589" />
      <feOffset
         dx="2"
         dy="2"
         result="offset"
         id="feOffset2591" />
      <feComposite
         in="SourceGraphic"
         in2="offset"
         operator="over"
         result="composite2"
         id="feComposite2593" />
    </filter>
    <filter
       style="color-interpolation-filters:sRGB"
       inkscape:label="Drop Shadow"
       id="filter2502">
      <feFlood
         flood-opacity="0.498039"
         flood-color="rgb(0,0,0)"
         result="flood"
         id="feFlood2492" />
      <feComposite
         in="flood"
         in2="SourceGraphic"
         operator="in"
         result="composite1"
         id="feComposite2494" />
      <feGaussianBlur
         in="composite1"
         stdDeviation="0.3"
         result="blur"
         id="feGaussianBlur2496" />
      <feOffset
         dx="2"
         dy="2"
         result="offset"
         id="feOffset2498" />
      <feComposite
         in="SourceGraphic"
         in2="offset"
         operator="over"
         result="composite2"
         id="feComposite2500" />
    </filter>
  </defs>
  <sodipodi:namedview
     id="base"
     pagecolor="#ffffff"
     bordercolor="#666666"
     borderopacity="1.0"
     inkscape:pageopacity="0.0"
     inkscape:pageshadow="2"
     inkscape:zoom="1.9880718"
     inkscape:cx="46.336471"
     inkscape:cy="195.86739"
     inkscape:document-units="mm"
     inkscape:current-layer="g1941"
     showgrid="false"
     units="px"
     inkscape:window-width="1347"
     inkscape:window-height="1152"
     inkscape:window-x="26"
     inkscape:window-y="23"
     inkscape:window-maximized="0"
     inkscape:snap-object-midpoints="true"
     inkscape:snap-global="true"
     showguides="false"
     inkscape:guide-bbox="true"
     inkscape:measure-start="886.282,1725.97"
     inkscape:measure-end="886.735,1570.32"
     inkscape:snap-bbox="true"
     inkscape:snap-bbox-edge-midpoints="false"
     inkscape:bbox-paths="false"
     inkscape:bbox-nodes="false"
     inkscape:snap-center="true"
     inkscape:snap-bbox-midpoints="true"
     inkscape:snap-nodes="true"
     inkscape:snap-others="true"
     inkscape:object-paths="true"
     inkscape:snap-intersection-paths="true"
     inkscape:snap-smooth-nodes="true"
     inkscape:snap-midpoints="true"
     inkscape:document-rotation="0"
     fit-margin-top="0"
     fit-margin-left="0"
     fit-margin-right="0"
     fit-margin-bottom="0" />
  <metadata
     id="metadata5">
    <rdf:RDF>
      <cc:Work
         rdf:about="">
        <dc:format>image/svg+xml</dc:format>
        <dc:type
           rdf:resource="http://purl.org/dc/dcmitype/StillImage" />
        <dc:title></dc:title>
      </cc:Work>
    </rdf:RDF>
  </metadata>
  <g
     inkscape:groupmode="layer"
     id="layer3"
     inkscape:label="roll"
     transform="translate(-86.900612,-6.3086097)">
    <g
       id="g1941"
       transform="translate(0.24771544,-0.92251269)"
       inkscape:export-xdpi="96"
       inkscape:export-ydpi="96">
      <g
         id="g854"
         transform="translate(-5.2307039,-2.5224806)">
        <path
           id="circle1907"
           style="vector-effect:none;fill:#3f9dd1;fill-opacity:1;fill-rule:evenodd;stroke:#000000;stroke-width:0.0553119;stroke-linecap:butt;stroke-linejoin:miter;stroke-miterlimit:4;stroke-dasharray:none;stroke-dashoffset:0;stroke-opacity:1"
           d="m 131.55997,93.32783 a 37.213206,37.213206 0 0 0 -37.213231,37.21323 37.213206,37.213206 0 0 0 37.213231,37.21323 37.213206,37.213206 0 0 0 37.21323,-37.21323 37.213206,37.213206 0 0 0 -37.21323,-37.21323 z m -0.0951,10.86032 a 26.353161,26.353161 0 0 1 0.0951,0 26.353161,26.353161 0 0 1 26.35343,26.35291 26.353161,26.353161 0 0 1 -26.35343,26.35343 26.353161,26.353161 0 0 1 -26.35291,-26.35343 26.353161,26.353161 0 0 1 26.25783,-26.35291 z"
           transform="translate(0,-81.100001)" />
        <path
           style="vector-effect:none;fill:#734021;fill-opacity:1;fill-rule:evenodd;stroke:none;stroke-width:0.0581023;stroke-linecap:butt;stroke-linejoin:miter;stroke-miterlimit:4;stroke-dasharray:none;stroke-dashoffset:0;stroke-opacity:1"
           d="m 94.269807,49.992607 a 37.213204,37.213204 0 0 0 0.0856,2.41709 37.213204,37.213204 0 0 0 0.44827,3.69253 37.213204,37.213204 0 0 0 0.81455,3.62946 37.213204,37.213204 0 0 0 1.17289,3.53023 37.213204,37.213204 0 0 0 1.51974,3.39504 37.213204,37.213204 0 0 0 1.54467,2.69319 h 63.215723 a 37.213204,37.213204 0 0 0 1.06185,-1.73194 37.213204,37.213204 0 0 0 1.61789,-3.34927 37.213204,37.213204 0 0 0 1.27544,-3.4943 37.213204,37.213204 0 0 0 0.92038,-3.60424 37.213204,37.213204 0 0 0 0.55576,-3.678 37.213204,37.213204 0 0 0 0.17518,-3.49979 z"
           id="rect1930"
           inkscape:connector-curvature="0" />
        <path
           transform="matrix(0.22720369,0,0,0.53194848,97.646947,37.997294)"
           inkscape:transform-center-y="1.8728131"
           inkscape:transform-center-x="-2.3989138e-06"
           inkscape:randomized="0"
           inkscape:rounded="2.42861e-17"
           inkscape:flatsided="true"
           sodipodi:arg2="2.6179939"
           sodipodi:arg1="1.5707963"
           sodipodi:r2="7.0413308"
           sodipodi:r1="14.082661"
           sodipodi:cy="-40.754833"
           sodipodi:cx="151.51556"
           sodipodi:sides="3"
           id="path1920"
           style="vector-effect:none;fill:#ffffff;fill-opacity:1;fill-rule:evenodd;stroke:none;stroke-width:0.1;stroke-linecap:butt;stroke-linejoin:miter;stroke-miterlimit:4;stroke-dasharray:none;stroke-dashoffset:0;stroke-opacity:1"
           sodipodi:type="star"
           d="m 151.51556,-26.672173 -12.19594,-21.12399 24.39189,-10e-7 z" />
        <path
           inkscape:connector-curvature="0"
           id="path1885"
           d="m 155.38885,38.094666 8.24294,-4.417159 -0.51215,-0.955482 -8.21168,4.400431 a 26.35316,26.35316 0 0 1 0.20919,0.364919 26.35316,26.35316 0 0 1 0.2717,0.607291 z"
           style="vector-effect:none;fill:#ffffff;fill-opacity:1;fill-rule:evenodd;stroke:none;stroke-width:0.152385;stroke-linecap:butt;stroke-linejoin:miter;stroke-miterlimit:4;stroke-dasharray:none;stroke-dashoffset:0;stroke-opacity:1" />
        <path
           inkscape:connector-curvature="0"
           id="path1887"
           d="m 108.60766,36.611954 -7.89557,-4.398241 -0.52749,0.946989 7.93092,4.417705 a 26.35316,26.35316 0 0 1 0.3726,-0.771518 26.35316,26.35316 0 0 1 0.11954,-0.194935 z"
           style="vector-effect:none;fill:#ffffff;fill-opacity:1;fill-rule:evenodd;stroke:none;stroke-width:0.152385;stroke-linecap:butt;stroke-linejoin:miter;stroke-miterlimit:4;stroke-dasharray:none;stroke-dashoffset:0;stroke-opacity:1" />
        <path
           inkscape:connector-curvature="0"
           id="path1889"
           d="m 113.99355,19.003082 -0.93301,0.551912 4.50271,7.611794 a 26.35316,26.35316 0 0 1 0.9404,-0.539576 z"
           style="vector-effect:none;fill:#ffffff;fill-opacity:1;fill-rule:evenodd;stroke:none;stroke-width:0.152385;stroke-linecap:butt;stroke-linejoin:miter;stroke-miterlimit:4;stroke-dasharray:none;stroke-dashoffset:0;stroke-opacity:1" />
        <path
           inkscape:connector-curvature="0"
           id="path1891"
           d="m 121.48449,18.330543 -1.03032,0.352314 2.06806,6.049838 a 26.35316,26.35316 0 0 1 1.03335,-0.343527 z"
           style="vector-effect:none;fill:#ffffff;fill-opacity:1;fill-rule:evenodd;stroke:none;stroke-width:0.147473;stroke-linecap:butt;stroke-linejoin:miter;stroke-miterlimit:4;stroke-dasharray:none;stroke-dashoffset:0;stroke-opacity:1" />
        <path
           inkscape:connector-curvature="0"
           id="path1893"
           d="m 126.82751,17.077586 -1.0742,0.178754 1.04816,6.296875 a 26.35316,26.35316 0 0 1 0.34901,-0.07841 26.35316,26.35316 0 0 1 0.7271,-0.08829 z"
           style="vector-effect:none;fill:#ffffff;fill-opacity:1;fill-rule:evenodd;stroke:none;stroke-width:0.147473;stroke-linecap:butt;stroke-linejoin:miter;stroke-miterlimit:4;stroke-dasharray:none;stroke-dashoffset:0;stroke-opacity:1" />
        <path
           inkscape:connector-curvature="0"
           id="path1895"
           d="m 137.25283,17.168608 -1.15837,6.339923 a 26.35316,26.35316 0 0 1 0.7729,0.116796 26.35316,26.35316 0 0 1 0.29856,0.07621 l 1.1581,-6.33718 z"
           style="vector-effect:none;fill:#ffffff;fill-opacity:1;fill-rule:evenodd;stroke:none;stroke-width:0.147473;stroke-linecap:butt;stroke-linejoin:miter;stroke-miterlimit:4;stroke-dasharray:none;stroke-dashoffset:0;stroke-opacity:1" />
        <path
           inkscape:connector-curvature="0"
           id="path1897"
           d="m 143.15657,18.720962 -2.31454,6.083024 a 26.35316,26.35316 0 0 1 1.02294,0.373688 l 2.30932,-6.069585 z"
           style="vector-effect:none;fill:#ffffff;fill-opacity:1;fill-rule:evenodd;stroke:none;stroke-width:0.147473;stroke-linecap:butt;stroke-linejoin:miter;stroke-miterlimit:4;stroke-dasharray:none;stroke-dashoffset:0;stroke-opacity:1" />
        <path
           inkscape:connector-curvature="0"
           id="path1899"
           d="m 149.99275,19.253949 -4.69707,7.693769 a 26.35316,26.35316 0 0 1 0.92394,0.566445 l 4.6982,-7.695415 z"
           style="vector-effect:none;fill:#ffffff;fill-opacity:1;fill-rule:evenodd;stroke:none;stroke-width:0.152385;stroke-linecap:butt;stroke-linejoin:miter;stroke-miterlimit:4;stroke-dasharray:none;stroke-dashoffset:0;stroke-opacity:1" />
        <path
           style="opacity:0.55;vector-effect:none;fill:#000000;fill-opacity:1;fill-rule:evenodd;stroke:none;stroke-width:0.073829;stroke-linecap:butt;stroke-linejoin:miter;stroke-miterlimit:4;stroke-dasharray:none;stroke-dashoffset:0;stroke-opacity:1;filter:url(#filter1417)"
           d="m 102.31491,-206.87433 c -0.0497,0.75736 -0.0827,1.51931 -0.11524,2.28152 0.84164,13.41948 7.00248,25.39642 16.40986,33.83411 l 66.38766,-0.0734 c 9.3625,-8.43444 15.49041,-20.38209 16.32874,-33.76435 -0.0326,-0.76151 -0.0655,-1.52278 -0.11525,-2.27945 -0.1101,1.3202 -0.23167,2.63752 -0.44286,3.92638 -0.26607,1.62389 -0.61109,3.22146 -1.03042,4.78834 -0.41934,1.56688 -0.9134,3.10313 -1.47797,4.60488 -0.56456,1.50175 -1.19941,2.96917 -1.90116,4.39767 -0.70178,1.4285 -1.47021,2.81799 -2.30116,4.16512 -0.83095,1.34713 -1.72474,2.65168 -2.67684,3.90932 -0.95208,1.25764 -1.9625,2.46869 -3.02771,3.62872 -1.06521,1.16003 -2.18503,2.26901 -3.35537,3.32331 l -66.38766,0.0734 c -1.17594,-1.05471 -2.30095,-2.16467 -3.37137,-3.32589 -1.07043,-1.16122 -2.0864,-2.37384 -3.04324,-3.63337 -0.95681,-1.25954 -1.85462,-2.56587 -2.68975,-3.91553 -0.83513,-1.34965 -1.60719,-2.74231 -2.31252,-4.1739 -0.70533,-1.4316 -1.34406,-2.90215 -1.91151,-4.40748 -0.56745,-1.50535 -1.06372,-3.04536 -1.48518,-4.61626 -0.42146,-1.5709 -0.76822,-3.173 -1.0356,-4.80126 -0.21248,-1.29392 -0.33486,-2.61637 -0.44545,-3.94188 z"
           id="path1385"
           inkscape:connector-curvature="0"
           transform="matrix(0.53055212,0,0,0.53055212,51.012683,159.19961)" />
        <path
           style="opacity:0.48;vector-effect:none;fill:#000000;fill-opacity:1;fill-rule:evenodd;stroke:none;stroke-width:0.073829;stroke-linecap:butt;stroke-linejoin:miter;stroke-miterlimit:4;stroke-dasharray:none;stroke-dashoffset:0;stroke-opacity:1;filter:url(#filter1374)"
           d="m 151.50928,-258.21801 c -27.43266,0 -49.67087,22.23822 -49.67087,49.67087 0,1.06036 0.0425,2.11047 0.108,3.15433 0.0419,-0.98215 0.0502,-1.9733 0.14831,-2.93987 0.16958,-1.6698 0.4221,-3.31526 0.75293,-4.932 0.33083,-1.61674 0.73993,-3.20457 1.2237,-4.75992 0.48376,-1.55535 1.04181,-3.0779 1.67018,-4.56354 0.62838,-1.48565 1.3272,-2.93476 2.09186,-4.34238 0.76466,-1.40761 1.59559,-2.77409 2.48822,-4.09535 0.89263,-1.32126 1.84698,-2.59695 2.85925,-3.82354 1.01227,-1.22659 2.08243,-2.40385 3.20601,-3.52744 1.12361,-1.12358 2.30034,-2.19373 3.52692,-3.206 1.22659,-1.01227 2.5028,-1.96663 3.82405,-2.85926 1.32128,-0.89262 2.68775,-1.72356 4.09536,-2.48822 1.40763,-0.76466 2.85623,-1.46297 4.34186,-2.09134 1.48564,-0.62838 3.00818,-1.18694 4.56354,-1.6707 1.55535,-0.48377 3.1437,-0.89287 4.76043,-1.2237 1.61674,-0.33083 3.26221,-0.58335 4.93199,-0.75292 1.66982,-0.16958 3.36373,-0.25632 5.07826,-0.25632 1.71455,0 3.40897,0.0867 5.07875,0.25632 1.66982,0.16957 3.31526,0.42209 4.932,0.75292 1.61673,0.33083 3.20508,0.73993 4.76043,1.2237 1.55536,0.48376 3.0779,1.04232 4.56356,1.6707 1.48564,0.62837 2.93423,1.32668 4.34184,2.09134 1.40764,0.76466 2.7741,1.5956 4.09538,2.48822 1.32125,0.89263 2.59694,1.84699 3.82352,2.85926 1.22658,1.01227 2.40385,2.08242 3.52745,3.206 1.12358,1.12359 2.19371,2.30085 3.20598,3.52744 1.01227,1.22659 1.96665,2.50228 2.85928,3.82354 0.89262,1.32126 1.72355,2.68774 2.48822,4.09535 0.76464,1.40762 1.46349,2.85673 2.09185,4.34238 0.62838,1.48564 1.18641,3.00819 1.67018,4.56354 0.48376,1.55535 0.89286,3.14318 1.2237,4.75992 0.33083,1.61674 0.58335,3.2622 0.75292,4.932 0.0981,0.96538 0.10636,1.95532 0.14833,2.93625 0.0653,-1.04267 0.108,-2.09158 0.108,-3.15071 0,-27.43265 -22.23873,-49.67087 -49.67139,-49.67087 z"
           id="circle1327"
           inkscape:connector-curvature="0"
           transform="matrix(0.53055212,0,0,0.53055212,51.176402,160.08626)" />
        <circle
           cy="49.44117"
           cx="131.63153"
           id="circle1957"
           style="vector-effect:none;fill:none;fill-opacity:1;fill-rule:evenodd;stroke:#000000;stroke-width:0.055312;stroke-linecap:butt;stroke-linejoin:miter;stroke-miterlimit:4;stroke-dasharray:none;stroke-dashoffset:0;stroke-opacity:1"
           r="37.213207" />
        <path
           inkscape:connector-curvature="0"
           id="path1881"
           d="m 157.85626,50.572477 h 10.91111 v -1.08161 h -10.85702 a 26.259356,26.35316 0 0 1 -0.0542,1.08161 z"
           style="vector-effect:none;fill:#ffffff;fill-opacity:1;fill-rule:evenodd;stroke:none;stroke-width:0.154559;stroke-linecap:butt;stroke-linejoin:miter;stroke-miterlimit:4;stroke-dasharray:none;stroke-dashoffset:0;stroke-opacity:1" />
        <path
           inkscape:connector-curvature="0"
           id="path1883"
           d="M 105.17793,49.490867 H 94.582357 v 1.08161 h 10.633963 a 26.35316,26.35316 0 0 1 -0.0384,-1.08161 z"
           style="vector-effect:none;fill:#ffffff;fill-opacity:1;fill-rule:evenodd;stroke:none;stroke-width:0.154835;stroke-linecap:butt;stroke-linejoin:miter;stroke-miterlimit:4;stroke-dasharray:none;stroke-dashoffset:0;stroke-opacity:1" />
      </g>
    </g>
  </g>
  <g
     inkscape:groupmode="layer"
     id="layer1"
     inkscape:label="pitch"
     transform="translate(-86.900612,-6.3086097)" />
  <g
     inkscape:groupmode="layer"
     id="layer2"
     inkscape:label="pointer"
     transform="translate(-86.900612,-6.3086097)">
    <flowRoot
       xml:space="preserve"
       id="flowRoot1653"
       style="font-style:normal;font-variant:normal;font-weight:normal;font-stretch:normal;font-size:21.3333px;line-height:25px;font-family:Arial;-inkscape-font-specification:Arial;letter-spacing:0px;word-spacing:0px;fill:#000000;fill-opacity:1;stroke:none"
       transform="scale(0.26458333)"><flowRegion
         id="flowRegion1655"><rect
           id="rect1657"
           width="51.915058"
           height="41.78529"
           x="397.59335"
           y="751.42273" /></flowRegion><flowPara
         id="flowPara1659" /></flowRoot>
  </g>
</svg>
