<?xml version="1.0" encoding="UTF-8" standalone="no"?>
<svg
   xmlns:dc="http://purl.org/dc/elements/1.1/"
   xmlns:cc="http://creativecommons.org/ns#"
   xmlns:rdf="http://www.w3.org/1999/02/22-rdf-syntax-ns#"
   xmlns:svg="http://www.w3.org/2000/svg"
   xmlns="http://www.w3.org/2000/svg"
   xmlns:sodipodi="http://sodipodi.sourceforge.net/DTD/sodipodi-0.dtd"
   xmlns:inkscape="http://www.inkscape.org/namespaces/inkscape"
   width="300"
   height="300"
   viewBox="0 0 79.375002 79.374998"
   version="1.1"
   id="svg1949"
   inkscape:version="1.0.2 (e86c870879, 2021-01-15)"
   sodipodi:docname="attitude_indicator_pitch.svg"
   inkscape:export-filename="/home/slimchahla/Downloads/attitude_indicator_pitch.png"
   inkscape:export-xdpi="96"
   inkscape:export-ydpi="96">
  <defs
     id="defs1943">
    <filter
       inkscape:collect="always"
       style="color-interpolation-filters:sRGB"
       id="filter1461"
       x="-0.0071981703"
       width="1.0143963"
       y="-0.036045816"
       height="1.0720916">
      <feGaussianBlur
         inkscape:collect="always"
         stdDeviation="0.20433248"
         id="feGaussianBlur1463" />
    </filter>
  </defs>
  <sodipodi:namedview
     id="base"
     pagecolor="#ffffff"
     bordercolor="#666666"
     borderopacity="1.0"
     inkscape:pageopacity="0.0"
     inkscape:pageshadow="2"
     inkscape:zoom="1.4"
     inkscape:cx="38.012529"
     inkscape:cy="157.78899"
     inkscape:document-units="mm"
     inkscape:current-layer="layer1"
     inkscape:document-rotation="0"
     showgrid="false"
     inkscape:window-width="1514"
     inkscape:window-height="1199"
     inkscape:window-x="26"
     inkscape:window-y="23"
     inkscape:window-maximized="0"
     fit-margin-top="0"
     fit-margin-left="0"
     fit-margin-right="0"
     fit-margin-bottom="0"
     units="px" />
  <metadata
     id="metadata1946">
    <rdf:RDF>
      <cc:Work
         rdf:about="">
        <dc:format>image/svg+xml</dc:format>
        <dc:type
           rdf:resource="http://purl.org/dc/dcmitype/StillImage" />
        <dc:title></dc:title>
      </cc:Work>
    </rdf:RDF>
  </metadata>
  <g
     inkscape:label="Layer 1"
     inkscape:groupmode="layer"
     id="layer1"
     transform="translate(-49.861213,-43.611603)">
    <g
       id="g1920"
       transform="matrix(0.99833534,0,0,0.99929622,-91.993145,45.181971)"
       inkscape:export-xdpi="96"
       inkscape:export-ydpi="96">
      <g
         id="g899"
         transform="matrix(1.0049117,0,0,0.99976511,-42.330528,-8.8193999)">
        <circle
           r="26.353161"
           cy="47.104424"
           cx="223.09915"
           id="circle1465"
           style="vector-effect:none;fill:#3f9dd1;fill-opacity:1;fill-rule:evenodd;stroke:none;stroke-width:0.0391701;stroke-linecap:butt;stroke-linejoin:miter;stroke-miterlimit:4;stroke-dasharray:none;stroke-dashoffset:0;stroke-opacity:1" />
        <path
           inkscape:connector-curvature="0"
           id="path1571"
           d="m 196.70648,47.318951 a 26.35316,26.35316 0 0 0 0.0584,1.649694 26.35316,26.35316 0 0 0 0.31749,2.615033 26.35316,26.35316 0 0 0 0.57685,2.570074 26.35316,26.35316 0 0 0 0.83047,2.499887 26.35316,26.35316 0 0 0 1.07612,2.404473 26.35316,26.35316 0 0 0 1.3108,2.284934 26.35316,26.35316 0 0 0 1.53234,2.142646 26.35316,26.35316 0 0 0 1.73852,1.97923 26.35316,26.35316 0 0 0 1.92741,1.795542 26.35316,26.35316 0 0 0 2.09714,1.594033 26.35316,26.35316 0 0 0 2.24572,1.376884 26.35316,26.35316 0 0 0 2.37185,1.146024 26.35316,26.35316 0 0 0 2.47439,0.903116 26.35316,26.35316 0 0 0 2.55253,0.651704 26.35316,26.35316 0 0 0 2.60462,0.393712 26.35316,26.35316 0 0 0 2.63094,0.131604 26.35316,26.35316 0 0 0 1.86407,-0.06607 26.35316,26.35316 0 0 0 2.61506,-0.317223 26.35316,26.35316 0 0 0 2.57034,-0.577124 26.35316,26.35316 0 0 0 2.4996,-0.830457 26.35316,26.35316 0 0 0 2.40447,-1.076119 26.35316,26.35316 0 0 0 2.28495,-1.310808 26.35316,26.35316 0 0 0 2.14291,-1.532071 26.35316,26.35316 0 0 0 1.97897,-1.738518 26.35316,26.35316 0 0 0 1.79554,-1.927411 26.35316,26.35316 0 0 0 1.5943,-2.097135 26.35316,26.35316 0 0 0 1.37688,-2.245721 26.35316,26.35316 0 0 0 1.14576,-2.372135 26.35316,26.35316 0 0 0 0.90311,-2.474379 26.35316,26.35316 0 0 0 0.65171,-2.552258 26.35316,26.35316 0 0 0 0.39371,-2.604889 26.35316,26.35316 0 0 0 0.12091,-2.416267 z"
           style="vector-effect:none;fill:#995a27;fill-opacity:1;fill-rule:evenodd;stroke:none;stroke-width:0.0581024;stroke-linecap:butt;stroke-linejoin:miter;stroke-miterlimit:4;stroke-dasharray:none;stroke-dashoffset:0;stroke-opacity:1" />
        <g
           aria-label="20"
           style="font-style:normal;font-variant:normal;font-weight:normal;font-stretch:normal;font-size:6.04607px;line-height:7.08524px;font-family:Arial;-inkscape-font-specification:Arial;letter-spacing:0px;word-spacing:0px;fill:#ffffff;fill-opacity:1;stroke:none;stroke-width:0.283409"
           id="text1471"
           transform="matrix(0.53055212,0,0,0.53055212,142.64403,219.38748)">
          <path
             d="m 124.11738,-346.76717 v 0.51073 h -2.86067 q -0.006,-0.19189 0.062,-0.36902 0.10923,-0.29227 0.34836,-0.57568 0.24207,-0.28341 0.69671,-0.65538 0.70557,-0.57863 0.95356,-0.91518 0.24798,-0.3395 0.24798,-0.64062 0,-0.31588 -0.22732,-0.53139 -0.22437,-0.21847 -0.58748,-0.21847 -0.38379,0 -0.61406,0.23027 -0.23027,0.23027 -0.23322,0.63768 l -0.54615,-0.0561 q 0.0561,-0.6111 0.42216,-0.92993 0.36607,-0.32179 0.98308,-0.32179 0.62291,0 0.98602,0.3454 0.36312,0.34541 0.36312,0.85614 0,0.25979 -0.10628,0.51072 -0.10628,0.25094 -0.35426,0.52845 -0.24503,0.2775 -0.81775,0.76166 -0.47826,0.40149 -0.61406,0.54615 -0.1358,0.14171 -0.22436,0.28636 z"
             style="fill:#ffffff;stroke:none;stroke-width:0.283409"
             id="path1697"
             inkscape:connector-curvature="0" />
          <path
             d="m 124.6901,-348.39087 q 0,-0.76756 0.15647,-1.23401 0.15941,-0.4694 0.46939,-0.72328 0.31293,-0.25389 0.78528,-0.25389 0.34836,0 0.6111,0.1417 0.26275,0.13876 0.43397,0.40445 0.17123,0.26275 0.26865,0.64358 0.0974,0.37788 0.0974,1.02145 0,0.76167 -0.15647,1.23106 -0.15647,0.46645 -0.4694,0.72329 -0.30998,0.25389 -0.78528,0.25389 -0.62586,0 -0.98307,-0.44874 -0.42807,-0.54025 -0.42807,-1.7595 z m 0.54615,0 q 0,1.06574 0.24799,1.42 0.25093,0.35131 0.617,0.35131 0.36607,0 0.61406,-0.35426 0.25093,-0.35426 0.25093,-1.41705 0,-1.06869 -0.25093,-1.42 -0.24799,-0.35131 -0.61996,-0.35131 -0.36607,0 -0.58453,0.30998 -0.27456,0.3956 -0.27456,1.46133 z"
             style="fill:#ffffff;stroke:none;stroke-width:0.283409"
             id="path1699"
             inkscape:connector-curvature="0" />
        </g>
        <g
           aria-label="20"
           style="font-style:normal;font-variant:normal;font-weight:normal;font-stretch:normal;font-size:6.04607px;line-height:7.08524px;font-family:Arial;-inkscape-font-specification:Arial;letter-spacing:0px;word-spacing:0px;fill:#ffffff;fill-opacity:1;stroke:none;stroke-width:0.283409"
           id="text1475"
           transform="matrix(0.53055212,0,0,0.53055212,142.64403,219.38748)">
          <path
             d="m 179.75458,-346.76717 v 0.51073 h -2.86067 q -0.006,-0.19189 0.062,-0.36902 0.10923,-0.29227 0.34835,-0.57568 0.24208,-0.28341 0.69672,-0.65538 0.70557,-0.57863 0.95355,-0.91518 0.24799,-0.3395 0.24799,-0.64062 0,-0.31588 -0.22732,-0.53139 -0.22437,-0.21847 -0.58748,-0.21847 -0.38379,0 -0.61406,0.23027 -0.23027,0.23027 -0.23322,0.63768 l -0.54615,-0.0561 q 0.0561,-0.6111 0.42216,-0.92993 0.36607,-0.32179 0.98307,-0.32179 0.62291,0 0.98603,0.3454 0.36312,0.34541 0.36312,0.85614 0,0.25979 -0.10628,0.51072 -0.10628,0.25094 -0.35426,0.52845 -0.24503,0.2775 -0.81775,0.76166 -0.47826,0.40149 -0.61406,0.54615 -0.1358,0.14171 -0.22436,0.28636 z"
             style="fill:#ffffff;stroke:none;stroke-width:0.283409"
             id="path1702"
             inkscape:connector-curvature="0" />
          <path
             d="m 180.3273,-348.39087 q 0,-0.76756 0.15646,-1.23401 0.15942,-0.4694 0.4694,-0.72328 0.31293,-0.25389 0.78528,-0.25389 0.34836,0 0.6111,0.1417 0.26275,0.13876 0.43397,0.40445 0.17123,0.26275 0.26865,0.64358 0.0974,0.37788 0.0974,1.02145 0,0.76167 -0.15646,1.23106 -0.15647,0.46645 -0.4694,0.72329 -0.30998,0.25389 -0.78528,0.25389 -0.62586,0 -0.98307,-0.44874 -0.42807,-0.54025 -0.42807,-1.7595 z m 0.54615,0 q 0,1.06574 0.24799,1.42 0.25093,0.35131 0.617,0.35131 0.36607,0 0.61406,-0.35426 0.25093,-0.35426 0.25093,-1.41705 0,-1.06869 -0.25093,-1.42 -0.24799,-0.35131 -0.61996,-0.35131 -0.36607,0 -0.58453,0.30998 -0.27456,0.3956 -0.27456,1.46133 z"
             style="fill:#ffffff;stroke:none;stroke-width:0.283409"
             id="path1704"
             inkscape:connector-curvature="0" />
        </g>
        <g
           aria-label="10"
           style="font-style:normal;font-variant:normal;font-weight:normal;font-stretch:normal;font-size:6.04607px;line-height:7.08524px;font-family:Arial;-inkscape-font-specification:Arial;letter-spacing:0px;word-spacing:0px;fill:#ffffff;fill-opacity:1;stroke:none;stroke-width:0.283409"
           id="text1481"
           transform="matrix(0.53055212,0,0,0.53055212,142.64403,219.38748)">
          <path
             d="m 128.51354,-339.71401 h 1.0067 v 4.42827 h -0.6731 v -3.75517 h -0.3336 z"
             style="font-style:normal;font-variant:normal;font-weight:normal;font-stretch:normal;font-family:'Airborne II';-inkscape-font-specification:'Airborne II';fill:#ffffff;stroke:none"
             id="path1687"
             inkscape:connector-curvature="0" />
          <path
             d="m 130.17562,-337.42016 q 0,-0.76757 0.15647,-1.23402 0.15941,-0.46939 0.46939,-0.72328 0.31293,-0.25389 0.78528,-0.25389 0.34836,0 0.6111,0.14171 0.26275,0.13875 0.43398,0.40445 0.17122,0.26274 0.26864,0.64357 0.0974,0.37788 0.0974,1.02146 0,0.76166 -0.15647,1.23106 -0.15647,0.46644 -0.4694,0.72328 -0.30998,0.25389 -0.78528,0.25389 -0.62586,0 -0.98307,-0.44873 -0.42807,-0.54025 -0.42807,-1.7595 z m 0.54615,0 q 0,1.06573 0.24799,1.42 0.25093,0.35131 0.617,0.35131 0.36607,0 0.61406,-0.35427 0.25093,-0.35426 0.25093,-1.41704 0,-1.06869 -0.25093,-1.42 -0.24799,-0.35131 -0.61996,-0.35131 -0.36607,0 -0.58453,0.30998 -0.27456,0.39559 -0.27456,1.46133 z"
             style="fill:#ffffff;stroke:none;stroke-width:0.283409"
             id="path1689"
             inkscape:connector-curvature="0" />
        </g>
        <g
           aria-label="10"
           style="font-style:normal;font-variant:normal;font-weight:normal;font-stretch:normal;font-size:6.04607px;line-height:7.08524px;font-family:Arial;-inkscape-font-specification:Arial;letter-spacing:0px;word-spacing:0px;fill:#ffffff;fill-opacity:1;stroke:none;stroke-width:0.283409"
           id="text1487"
           transform="matrix(0.53055212,0,0,0.53055212,142.64403,219.38748)">
          <path
             d="m 172.1493,-339.71401 h 1.00669 v 4.42827 h -0.67309 v -3.75517 h -0.3336 z"
             style="font-style:normal;font-variant:normal;font-weight:normal;font-stretch:normal;font-family:'Airborne II';-inkscape-font-specification:'Airborne II';fill:#ffffff;stroke:none"
             id="path1692"
             inkscape:connector-curvature="0" />
          <path
             d="m 173.81138,-337.42016 q 0,-0.76757 0.15646,-1.23402 0.15942,-0.46939 0.4694,-0.72328 0.31293,-0.25389 0.78528,-0.25389 0.34836,0 0.6111,0.14171 0.26275,0.13875 0.43397,0.40445 0.17123,0.26274 0.26865,0.64357 0.0974,0.37788 0.0974,1.02146 0,0.76166 -0.15646,1.23106 -0.15647,0.46644 -0.4694,0.72328 -0.30998,0.25389 -0.78528,0.25389 -0.62586,0 -0.98308,-0.44873 -0.42806,-0.54025 -0.42806,-1.7595 z m 0.54615,0 q 0,1.06573 0.24798,1.42 0.25094,0.35131 0.61701,0.35131 0.36607,0 0.61405,-0.35427 0.25094,-0.35426 0.25094,-1.41704 0,-1.06869 -0.25094,-1.42 -0.24798,-0.35131 -0.61995,-0.35131 -0.36607,0 -0.58454,0.30998 -0.27455,0.39559 -0.27455,1.46133 z"
             style="fill:#ffffff;stroke:none;stroke-width:0.283409"
             id="path1694"
             inkscape:connector-curvature="0" />
        </g>
        <g
           aria-label="10"
           style="font-style:normal;font-variant:normal;font-weight:normal;font-stretch:normal;font-size:6.04607px;line-height:7.08524px;font-family:Arial;-inkscape-font-specification:Arial;letter-spacing:0px;word-spacing:0px;fill:#ffffff;fill-opacity:1;stroke:none;stroke-width:0.283409"
           id="text1493"
           transform="matrix(0.53055212,0,0,0.53055212,142.64403,219.38748)">
          <path
             d="m 129.89857,-309.99197 q 0,-0.76757 0.15647,-1.23401 0.15942,-0.4694 0.4694,-0.72329 0.31293,-0.25389 0.78528,-0.25389 0.34835,0 0.6111,0.14171 0.26274,0.13875 0.43397,0.40445 0.17123,0.26274 0.26865,0.64357 0.0974,0.37788 0.0974,1.02146 0,0.76166 -0.15647,1.23106 -0.15646,0.46644 -0.46939,0.72328 -0.30998,0.25389 -0.78528,0.25389 -0.62587,0 -0.98308,-0.44873 -0.42807,-0.54025 -0.42807,-1.7595 z m 0.54616,0 q 0,1.06574 0.24798,1.42 0.25094,0.35131 0.61701,0.35131 0.36607,0 0.61405,-0.35426 0.25094,-0.35427 0.25094,-1.41705 0,-1.06869 -0.25094,-1.42 -0.24798,-0.35131 -0.61996,-0.35131 -0.36607,0 -0.58453,0.30998 -0.27455,0.39559 -0.27455,1.46133 z"
             style="fill:#ffffff;stroke:none;stroke-width:0.283409"
             id="path1684"
             inkscape:connector-curvature="0" />
          <path
             d="m 128.2365,-312.28582 h 1.00669 v 4.42828 h -0.6731 v -3.75518 h -0.33359 z"
             style="font-style:normal;font-variant:normal;font-weight:normal;font-stretch:normal;font-family:'Airborne II';-inkscape-font-specification:'Airborne II';fill:#ffffff;stroke:none"
             id="path1682"
             inkscape:connector-curvature="0" />
        </g>
        <g
           aria-label="10"
           style="font-style:normal;font-variant:normal;font-weight:normal;font-stretch:normal;font-size:6.04607px;line-height:7.08524px;font-family:Arial;-inkscape-font-specification:Arial;letter-spacing:0px;word-spacing:0px;fill:#ffffff;fill-opacity:1;stroke:none;stroke-width:0.283409"
           id="text1499"
           transform="matrix(0.53055212,0,0,0.53055212,142.64403,219.38748)">
          <path
             d="m 172.28783,-312.28582 h 1.0067 v 4.42828 h -0.6731 v -3.75518 h -0.3336 z"
             style="font-style:normal;font-variant:normal;font-weight:normal;font-stretch:normal;font-family:'Airborne II';-inkscape-font-specification:'Airborne II';fill:#ffffff;stroke:none"
             id="path1677"
             inkscape:connector-curvature="0" />
          <path
             d="m 173.94991,-309.99197 q 0,-0.76757 0.15647,-1.23401 0.15942,-0.4694 0.46939,-0.72329 0.31294,-0.25389 0.78528,-0.25389 0.34836,0 0.61111,0.14171 0.26274,0.13875 0.43397,0.40445 0.17122,0.26274 0.26865,0.64357 0.0974,0.37788 0.0974,1.02146 0,0.76166 -0.15647,1.23106 -0.15646,0.46644 -0.46939,0.72328 -0.30998,0.25389 -0.78529,0.25389 -0.62586,0 -0.98307,-0.44873 -0.42807,-0.54025 -0.42807,-1.7595 z m 0.54616,0 q 0,1.06574 0.24798,1.42 0.25093,0.35131 0.617,0.35131 0.36608,0 0.61406,-0.35426 0.25093,-0.35427 0.25093,-1.41705 0,-1.06869 -0.25093,-1.42 -0.24798,-0.35131 -0.61996,-0.35131 -0.36607,0 -0.58453,0.30998 -0.27455,0.39559 -0.27455,1.46133 z"
             style="fill:#ffffff;stroke:none;stroke-width:0.283409"
             id="path1679"
             inkscape:connector-curvature="0" />
        </g>
        <g
           aria-label="20"
           style="font-style:normal;font-variant:normal;font-weight:normal;font-stretch:normal;font-size:6.04607px;line-height:7.08524px;font-family:Arial;-inkscape-font-specification:Arial;letter-spacing:0px;word-spacing:0px;fill:#ffffff;fill-opacity:1;stroke:none;stroke-width:0.283409"
           id="text1503"
           transform="matrix(0.53055212,0,0,0.53055212,142.64403,219.38748)">
          <path
             d="m 124.2559,-297.38261 v 0.51072 h -2.86067 q -0.006,-0.19189 0.062,-0.36902 0.10923,-0.29227 0.34835,-0.57568 0.24208,-0.2834 0.69672,-0.65538 0.70557,-0.57863 0.95355,-0.91518 0.24799,-0.3395 0.24799,-0.64062 0,-0.31588 -0.22732,-0.53139 -0.22437,-0.21846 -0.58748,-0.21846 -0.38379,0 -0.61406,0.23027 -0.23027,0.23027 -0.23322,0.63767 l -0.54615,-0.0561 q 0.0561,-0.61111 0.42216,-0.92994 0.36607,-0.32179 0.98307,-0.32179 0.62291,0 0.98603,0.34541 0.36312,0.3454 0.36312,0.85613 0,0.25979 -0.10628,0.51073 -0.10628,0.25093 -0.35426,0.52844 -0.24503,0.2775 -0.81775,0.76166 -0.47826,0.4015 -0.61406,0.54615 -0.1358,0.14171 -0.22436,0.28637 z"
             style="fill:#ffffff;stroke:none;stroke-width:0.283409"
             id="path1672"
             inkscape:connector-curvature="0" />
          <path
             d="m 124.82862,-299.00631 q 0,-0.76757 0.15646,-1.23402 0.15942,-0.46939 0.4694,-0.72328 0.31293,-0.25389 0.78528,-0.25389 0.34836,0 0.6111,0.14171 0.26275,0.13875 0.43397,0.40444 0.17123,0.26275 0.26865,0.64358 0.0974,0.37788 0.0974,1.02146 0,0.76166 -0.15646,1.23106 -0.15647,0.46644 -0.4694,0.72328 -0.30998,0.25389 -0.78528,0.25389 -0.62586,0 -0.98307,-0.44873 -0.42807,-0.54025 -0.42807,-1.7595 z m 0.54615,0 q 0,1.06573 0.24799,1.41999 0.25093,0.35131 0.617,0.35131 0.36607,0 0.61406,-0.35426 0.25093,-0.35426 0.25093,-1.41704 0,-1.06869 -0.25093,-1.42 -0.24799,-0.35131 -0.61996,-0.35131 -0.36607,0 -0.58453,0.30998 -0.27456,0.39559 -0.27456,1.46133 z"
             style="fill:#ffffff;stroke:none;stroke-width:0.283409"
             id="path1674"
             inkscape:connector-curvature="0" />
        </g>
        <g
           aria-label="20"
           style="font-style:normal;font-variant:normal;font-weight:normal;font-stretch:normal;font-size:6.04607px;line-height:7.08524px;font-family:Arial;-inkscape-font-specification:Arial;letter-spacing:0px;word-spacing:0px;fill:#ffffff;fill-opacity:1;stroke:none;stroke-width:0.283409"
           id="text1507"
           transform="matrix(0.53055212,0,0,0.53055212,142.64403,219.38748)">
          <path
             d="m 179.66638,-297.38261 v 0.51072 h -2.86066 q -0.006,-0.19189 0.062,-0.36902 0.10923,-0.29227 0.34836,-0.57568 0.24208,-0.2834 0.69671,-0.65538 0.70558,-0.57863 0.95356,-0.91518 0.24798,-0.3395 0.24798,-0.64062 0,-0.31588 -0.22732,-0.53139 -0.22436,-0.21846 -0.58748,-0.21846 -0.38378,0 -0.61405,0.23027 -0.23027,0.23027 -0.23323,0.63767 l -0.54615,-0.0561 q 0.0561,-0.61111 0.42216,-0.92994 0.36607,-0.32179 0.98308,-0.32179 0.62291,0 0.98603,0.34541 0.36312,0.3454 0.36312,0.85613 0,0.25979 -0.10628,0.51073 -0.10628,0.25093 -0.35426,0.52844 -0.24504,0.2775 -0.81776,0.76166 -0.47825,0.4015 -0.61405,0.54615 -0.1358,0.14171 -0.22437,0.28637 z"
             style="fill:#ffffff;stroke:none;stroke-width:0.283409"
             id="path1667"
             inkscape:connector-curvature="0" />
          <path
             d="m 180.2391,-299.00631 q 0,-0.76757 0.15647,-1.23402 0.15942,-0.46939 0.4694,-0.72328 0.31293,-0.25389 0.78528,-0.25389 0.34835,0 0.6111,0.14171 0.26274,0.13875 0.43397,0.40444 0.17122,0.26275 0.26865,0.64358 0.0974,0.37788 0.0974,1.02146 0,0.76166 -0.15647,1.23106 -0.15646,0.46644 -0.46939,0.72328 -0.30998,0.25389 -0.78528,0.25389 -0.62587,0 -0.98308,-0.44873 -0.42807,-0.54025 -0.42807,-1.7595 z m 0.54616,0 q 0,1.06573 0.24798,1.41999 0.25094,0.35131 0.61701,0.35131 0.36607,0 0.61405,-0.35426 0.25094,-0.35426 0.25094,-1.41704 0,-1.06869 -0.25094,-1.42 -0.24798,-0.35131 -0.61996,-0.35131 -0.36607,0 -0.58453,0.30998 -0.27455,0.39559 -0.27455,1.46133 z"
             style="fill:#ffffff;stroke:none;stroke-width:0.283409"
             id="path1669"
             inkscape:connector-curvature="0" />
        </g>
        <rect
           style="vector-effect:none;fill:#ffffff;fill-opacity:1;fill-rule:evenodd;stroke:none;stroke-width:0.0530552;stroke-linecap:butt;stroke-linejoin:miter;stroke-miterlimit:4;stroke-dasharray:none;stroke-dashoffset:0;stroke-opacity:1"
           id="rect1509"
           width="22.658514"
           height="0.41575259"
           x="211.91881"
           y="60.747086" />
        <rect
           y="57.801216"
           x="216.68996"
           height="0.42785823"
           width="13.116222"
           id="rect1511"
           style="vector-effect:none;fill:#ffffff;fill-opacity:1;fill-rule:evenodd;stroke:none;stroke-width:0.0409495;stroke-linecap:butt;stroke-linejoin:miter;stroke-miterlimit:4;stroke-dasharray:none;stroke-dashoffset:0;stroke-opacity:1" />
        <rect
           style="vector-effect:none;fill:#ffffff;fill-opacity:1;fill-rule:evenodd;stroke:none;stroke-width:0.0459527;stroke-linecap:butt;stroke-linejoin:miter;stroke-miterlimit:4;stroke-dasharray:none;stroke-dashoffset:0;stroke-opacity:1"
           id="rect1513"
           width="16.712492"
           height="0.42285505"
           x="214.89183"
           y="54.863907" />
        <rect
           y="51.992989"
           x="218.01784"
           height="0.43205911"
           width="10.46045"
           id="rect1515"
           style="vector-effect:none;fill:#ffffff;fill-opacity:1;fill-rule:evenodd;stroke:none;stroke-width:0.0367487;stroke-linecap:butt;stroke-linejoin:miter;stroke-miterlimit:4;stroke-dasharray:none;stroke-dashoffset:0;stroke-opacity:1" />
        <rect
           style="vector-effect:none;fill:#ffffff;fill-opacity:1;fill-rule:evenodd;stroke:none;stroke-width:0.0360417;stroke-linecap:butt;stroke-linejoin:miter;stroke-miterlimit:4;stroke-dasharray:none;stroke-dashoffset:0;stroke-opacity:1"
           id="rect1517"
           width="10.045404"
           height="0.43276611"
           x="218.22537"
           y="43.246681" />
        <rect
           y="40.38509"
           x="215.06979"
           height="0.42332196"
           width="16.356562"
           id="rect1519"
           style="vector-effect:none;fill:#ffffff;fill-opacity:1;fill-rule:evenodd;stroke:none;stroke-width:0.0454858;stroke-linecap:butt;stroke-linejoin:miter;stroke-miterlimit:4;stroke-dasharray:none;stroke-dashoffset:0;stroke-opacity:1" />
        <rect
           style="vector-effect:none;fill:#ffffff;fill-opacity:1;fill-rule:evenodd;stroke:none;stroke-width:0.0415083;stroke-linecap:butt;stroke-linejoin:miter;stroke-miterlimit:4;stroke-dasharray:none;stroke-dashoffset:0;stroke-opacity:1"
           id="rect1521"
           width="13.49422"
           height="0.4272995"
           x="216.50096"
           y="37.406544" />
        <rect
           y="34.435432"
           x="212.20694"
           height="0.41639137"
           width="22.08227"
           id="rect1523"
           style="vector-effect:none;fill:#ffffff;fill-opacity:1;fill-rule:evenodd;stroke:none;stroke-width:0.0524164;stroke-linecap:butt;stroke-linejoin:miter;stroke-miterlimit:4;stroke-dasharray:none;stroke-dashoffset:0;stroke-opacity:1" />
        <rect
           style="vector-effect:none;fill:#ffffff;fill-opacity:1;fill-rule:evenodd;stroke:none;stroke-width:0.0407468;stroke-linecap:butt;stroke-linejoin:miter;stroke-miterlimit:4;stroke-dasharray:none;stroke-dashoffset:0;stroke-opacity:1"
           id="rect1525"
           width="12.980513"
           height="0.42806101"
           x="216.75781"
           y="31.453037" />
        <rect
           y="47.242096"
           x="196.84134"
           height="1.1052148"
           width="52.464111"
           id="rect1527"
           style="vector-effect:none;fill:#ffffff;fill-opacity:1;fill-rule:evenodd;stroke:none;stroke-width:0.131628;stroke-linecap:butt;stroke-linejoin:miter;stroke-miterlimit:4;stroke-dasharray:none;stroke-dashoffset:0;stroke-opacity:1" />
        <path
           style="opacity:0.753;vector-effect:none;fill:#3771c8;fill-opacity:1;fill-rule:evenodd;stroke:none;stroke-width:0.073829;stroke-linecap:butt;stroke-linejoin:miter;stroke-miterlimit:4;stroke-dasharray:none;stroke-dashoffset:0;stroke-opacity:1;filter:url(#filter1461)"
           d="m 117.53236,-360.79018 c 0.74971,-0.16047 1.47749,-0.33423 2.24844,-0.48163 1.54276,-0.29495 3.12674,-0.56403 4.74648,-0.80719 1.61974,-0.24312 3.275,-0.46074 4.96094,-0.65267 1.68594,-0.1919 3.40251,-0.35838 5.14387,-0.49969 1.74137,-0.14134 3.50773,-0.25747 5.29374,-0.34883 1.786,-0.0914 3.59168,-0.15796 5.41155,-0.19997 1.81986,-0.042 3.65388,-0.0594 5.49682,-0.0527 1.84295,0.007 3.6948,0.0377 5.55005,0.0925 1.85525,0.0548 3.71396,0.13342 5.57072,0.23566 1.85676,0.10221 3.71133,0.22767 5.55883,0.37671 1.84751,0.14904 3.68797,0.3215 5.51543,0.51676 1.82746,0.19526 3.6423,0.41339 5.43894,0.65424 1.79664,0.24082 3.57487,0.50432 5.32991,0.79012 0.62988,0.10258 1.23884,0.22347 1.86242,0.33176 a 49.6712,49.6712 0 0 0 -34.01653,-13.55989 49.6712,49.6712 0 0 0 -34.11161,13.60485 z"
           id="path1529"
           inkscape:connector-curvature="0"
           transform="matrix(0.53055212,0,0,0.53055212,142.64403,219.38748)" />
        <g
           id="g2112"
           transform="matrix(0.96363931,0,0,0.96363931,88.307354,133.41855)"
           style="opacity:0.679;stroke:#ffffff">
          <g
             id="g2090"
             style="stroke:#ffffff">
            <path
               style="opacity:1;vector-effect:none;fill:none;fill-opacity:1;stroke:#ffffff;stroke-width:4.53543;stroke-linecap:butt;stroke-linejoin:miter;stroke-miterlimit:4;stroke-dasharray:none;stroke-dashoffset:0;stroke-opacity:1"
               d="m 528.57116,-333.66126 71.78463,70.94901"
               id="path2021"
               transform="scale(0.26458333)"
               inkscape:connector-curvature="0" />
            <path
               style="opacity:1;vector-effect:none;fill:none;fill-opacity:1;stroke:#ffffff;stroke-width:4.53543;stroke-linecap:butt;stroke-linejoin:miter;stroke-miterlimit:4;stroke-dasharray:none;stroke-dashoffset:0;stroke-opacity:1"
               d="m 528.57116,-333.66126 -71.71558,70.88078"
               id="path2038"
               transform="scale(0.26458333)"
               inkscape:connector-curvature="0" />
          </g>
          <path
             inkscape:connector-curvature="0"
             transform="scale(0.26458333)"
             id="path2093"
             d="m 528.57116,-333.66125 89.43698,48.2282"
             style="opacity:1;vector-effect:none;fill:none;fill-opacity:1;stroke:#ffffff;stroke-width:4.53543;stroke-linecap:butt;stroke-linejoin:miter;stroke-miterlimit:4;stroke-dasharray:none;stroke-dashoffset:0;stroke-opacity:1" />
          <path
             inkscape:connector-curvature="0"
             transform="scale(0.26458333)"
             id="path2095"
             d="m 528.57116,-333.66125 -89.40499,48.21095"
             style="opacity:1;vector-effect:none;fill:none;fill-opacity:1;stroke:#ffffff;stroke-width:4.53543;stroke-linecap:butt;stroke-linejoin:miter;stroke-miterlimit:4;stroke-dasharray:none;stroke-dashoffset:0;stroke-opacity:1" />
        </g>
      </g>
    </g>
  </g>
</svg>
